<svg xmlns:xlink="http://www.w3.org/1999/xlink" xmlns="http://www.w3.org/2000/svg" viewBox="0 0 191.46079982207948 300.00000000000006" preserveAspectRatio="xMidYMid meet" class="css-1r4bsbq" id="eddbfaff" width="191.46079982207948"  height="300.00000000000006" ><defs id="SvgjsDefs2915"></defs><g id="SvgjsG2916" featurekey="nameFeature-0" transform="matrix(9.515942124033034,0,0,9.515942124033034,-0.000010209498300110972,-87.10849220926042)" fill="#FE5757"><path d="M18.64 27.72 c0 0 0.28 1.72 -0.24 4 c-0.32 1 -0.84 1.88 -1.4 2.68 c-1.2 1.6 -2.64 2.8 -3.96 3.72 c-1.36 0.92 -2.64 1.56 -3.6 1.96 c-0.48 0.2 -0.88 0.36 -1.16 0.44 c-0.32 0.08 -0.48 0.16 -0.48 0.16 s-0.16 -0.16 -0.36 -0.4 c-0.16 -0.24 -0.36 -0.56 -0.36 -0.96 c-0.08 -0.8 0 -1 -0.16 -1.48 c-0.2 -0.52 -0.2 -0.84 -0.2 -0.84 c1.24 -0.28 2.44 -0.8 3.6 -1.4 l-0.16 -0.24 c-1.08 0.52 -2.16 0.92 -3.28 1.16 c0 0 -0.08 -0.24 -0.2 -0.56 c-0.08 -0.32 -0.2 -0.76 -0.24 -1.16 l0.08 0 c0.08 -0.04 0.16 -0.04 0.28 -0.08 c0.24 -0.08 0.6 -0.2 1.04 -0.36 c0.84 -0.32 2.04 -0.92 3.16 -1.72 c0.56 -0.4 1.08 -0.84 1.48 -1.32 c0.24 -0.24 0.4 -0.48 0.56 -0.72 s0.28 -0.48 0.36 -0.68 s0.12 -0.4 0.16 -0.56 l0 -0.28 l0 -0.08 l0 -0.04 l0 -0.04 c0 -0.08 -0.04 -0.12 -0.08 -0.16 l0 -0.04 l-0.04 -0.04 c0 -0.04 -0.04 -0.04 -0.08 -0.08 c-0.08 -0.08 -0.24 -0.2 -0.44 -0.28 s-0.48 -0.16 -0.76 -0.24 c-0.56 -0.12 -1.28 -0.2 -1.96 -0.16 c-0.6 0.04 -1.12 0.08 -1.64 0.2 c-0.64 0.4 -1.12 0.64 -1.32 0.76 c-0.32 1.84 -0.64 3.76 -0.88 5.44 c-0.08 0.68 -0.16 1.36 -0.2 1.96 c-0.04 0.56 -0.08 1.08 -0.12 1.52 c-0.08 0.88 -0.08 1.44 -0.08 1.44 s-0.2 0.08 -0.48 0.16 c-0.32 0.04 -0.68 0.12 -1.08 0.04 c-0.76 -0.2 -0.92 -0.36 -1.44 -0.32 c-0.52 0 -0.84 -0.12 -0.84 -0.12 c0.16 -1.44 0.36 -2.84 0.6 -4.2 l-0.28 -0.04 c-0.08 0.32 -0.16 0.64 -0.2 0.96 l-0.2 0.96 c-0.12 0.64 -0.2 1.28 -0.32 1.96 c0 0 -0.96 0 -1.72 -0.24 c0 0 0.04 -0.2 0.08 -0.56 c0 -0.16 0.04 -0.36 0.04 -0.6 c0.04 -0.24 0.08 -0.48 0.12 -0.8 c0.04 -0.28 0.12 -0.6 0.16 -0.96 s0.12 -0.72 0.2 -1.12 c0.12 -0.76 0.28 -1.6 0.44 -2.48 c0.36 -1.76 0.8 -3.68 1.24 -5.44 c0.44 -1.72 0.84 -3.36 1.12 -4.6 c0.36 -1.64 0.8 -3.52 1.12 -5.28 c0.2 -0.84 0.32 -1.68 0.48 -2.44 c0.12 -0.76 0.24 -1.4 0.32 -1.96 c0.12 -0.76 0.88 -1.32 1.68 -1.2 l0.84 0.12 c0.32 -0.2 0.68 -0.4 1.04 -0.6 c0.56 -0.28 1.2 -0.56 1.88 -0.8 c0.68 -0.2 1.44 -0.4 2.28 -0.48 s1.76 -0.08 2.76 0.2 c0.12 0.04 0.24 0.04 0.36 0.12 c0.16 0.04 0.28 0.08 0.4 0.12 l0.2 0.08 c0.04 0.04 0.12 0.08 0.2 0.12 c0.12 0.04 0.24 0.12 0.4 0.2 c0.48 0.28 0.96 0.68 1.36 1.12 c0.08 0.12 0.16 0.24 0.28 0.36 l0.24 0.36 c0.16 0.28 0.24 0.52 0.4 0.8 c0.04 0.12 0.08 0.24 0.12 0.4 l0.12 0.36 c0.04 0.12 0.08 0.24 0.08 0.36 l0.08 0.36 c0.04 0.16 0.04 0.24 0.04 0.36 l0.04 0.36 l0 0.36 l0 0.4 l0 0.2 l0 0.2 c-0.04 0.12 -0.04 0.24 -0.08 0.36 c0 0.16 -0.04 0.28 -0.08 0.4 c0 0.08 -0.04 0.2 -0.08 0.32 c-0.32 1.12 -0.88 2.08 -1.48 2.92 s-1.28 1.6 -2 2.28 c-0.48 0.44 -0.92 0.88 -1.4 1.28 c0.16 0.08 0.36 0.16 0.52 0.24 c0.76 0.4 1.56 1 2.16 1.84 c0.16 0.2 0.32 0.4 0.44 0.64 s0.2 0.44 0.28 0.68 c0.08 0.12 0.12 0.24 0.16 0.36 s0.04 0.24 0.08 0.36 z M14.88 15.52 c0.04 -0.08 0.04 -0.12 0.04 -0.2 l0 -0.24 l0 -0.08 l-0.04 -0.08 l0 -0.12 l0 -0.04 l-0.04 -0.04 l0 -0.08 c-0.04 -0.08 -0.08 -0.12 -0.12 -0.16 s-0.08 -0.04 -0.24 -0.12 c-0.16 -0.04 -0.4 -0.08 -0.72 -0.04 c-0.28 0 -0.6 0.04 -0.96 0.12 c-0.64 0.16 -1.32 0.44 -1.84 0.76 c-0.48 0.28 -0.84 0.52 -1.08 0.76 c-0.16 0.84 -0.32 1.72 -0.52 2.64 c-0.16 0.84 -0.36 1.68 -0.52 2.56 c0.44 -0.32 0.96 -0.64 1.44 -0.96 c0.72 -0.48 1.44 -1.04 2.12 -1.6 c0.64 -0.56 1.28 -1.16 1.72 -1.72 c0.24 -0.28 0.4 -0.56 0.52 -0.8 c0.16 -0.24 0.2 -0.44 0.24 -0.56 z" fill="#FE5757"></path></g></svg>