<svg xmlns:xlink="http://www.w3.org/1999/xlink" xmlns="http://www.w3.org/2000/svg" viewBox="0 0 227.71619294372258 300" preserveAspectRatio="xMidYMid meet" class="css-c68jf5" id="adgfafgh" width="227.71619294372258"  height="300" ><defs id="SvgjsDefs3092"></defs><g id="SvgjsG3093" featurekey="nameFeature-0" transform="matrix(9.270125219396217,0,0,9.270125219396217,0.1876124976572197,-80.81679634962416)" fill="#000000"><path d="M7.4 30.6 c0.16 3.04 -1.04 4.68 -2.36 4.6 c-1.32 -0.12 -2.72 -1.68 -3.32 -4.96 c-0.32 -1.72 -0.64 -4.36 -1 -7.64 c-0.04 0.04 -0.88 -7.92 -0.72 -8.44 c0.04 -2.08 0.8 -3.76 2.44 -4.44 c3.52 -1.28 7.4 -1.16 11 -0.6 c5.8 0.92 8.2 7.24 4.92 11.32 c-0.16 0.2 -0.32 0.44 -0.48 0.64 l-0.12 0.12 l-0.04 0.04 l0 0 l0 0 l0 0.04 l0.04 0 l0 0 l0 0 l0 0 l0 0 l0 0 s-0.04 0 0 0 l0.04 0 l0.16 0.04 c8.64 3.28 8.4 13.4 1.48 17.72 c-1.92 1.2 -3.72 1.68 -5.2 1.88 c-0.4 0.08 -0.76 0.12 -1.08 0.12 c-0.36 0.04 -0.68 0.04 -1 0.04 c-0.64 0 -1.2 -0.04 -1.72 -0.12 c-2.04 -0.28 -3.16 -0.92 -3.56 -1.48 c-0.44 -0.56 -0.2 -1.12 0.52 -1.6 c0.68 -0.44 1.88 -0.76 3.36 -1.08 c1.12 -0.24 3 -0.64 4.92 -1.68 c0.96 -0.52 1.96 -1.24 2.56 -2.2 c3.2 -5.72 -3.68 -6.56 -7.56 -6.32 c-1.32 -0.32 -3.32 -0.92 -3.24 -2.6 c0.16 -4.08 4.68 -5.2 6.08 -7.8 c-0.36 -1.64 -5.56 -1 -6.88 -0.88 l-0.08 0 l-0.04 0 l0 0 l-0.12 0.04 c-0.04 0 -0.08 0 -0.08 0.04 c-0.04 0.04 0 0.08 0 0.08 l0 0.04 l0 0.04 l0 0 l0.04 0.08 c0.28 4.44 0.92 11.4 1.04 14.96 z"></path></g></svg>