<svg xmlns:xlink="http://www.w3.org/1999/xlink" xmlns="http://www.w3.org/2000/svg" viewBox="0 45 250 5" preserveAspectRatio="xMidYMid meet" class="css-c68jf5" id="bddgdfga" width="250"  height="93" ><defs id="SvgjsDefs2368"></defs><g id="SvgjsG2369" featurekey="nameFeature-0" transform="matrix(1.8104167472389046,0,0,1.8104167472389046,-0.000001942366448062675,-15.279928672850932)" fill="#FE5757"><path d="M18.64 27.72 c0 0 0.28 1.72 -0.24 4 c-0.32 1 -0.84 1.88 -1.4 2.68 c-1.2 1.6 -2.64 2.8 -3.96 3.72 c-1.36 0.92 -2.64 1.56 -3.6 1.96 c-0.48 0.2 -0.88 0.36 -1.16 0.44 c-0.32 0.08 -0.48 0.16 -0.48 0.16 s-0.16 -0.16 -0.36 -0.4 c-0.16 -0.24 -0.36 -0.56 -0.36 -0.96 c-0.08 -0.8 0 -1 -0.16 -1.48 c-0.2 -0.52 -0.2 -0.84 -0.2 -0.84 c1.24 -0.28 2.44 -0.8 3.6 -1.4 l-0.16 -0.24 c-1.08 0.52 -2.16 0.92 -3.28 1.16 c0 0 -0.08 -0.24 -0.2 -0.56 c-0.08 -0.32 -0.2 -0.76 -0.24 -1.16 l0.08 0 c0.08 -0.04 0.16 -0.04 0.28 -0.08 c0.24 -0.08 0.6 -0.2 1.04 -0.36 c0.84 -0.32 2.04 -0.92 3.16 -1.72 c0.56 -0.4 1.08 -0.84 1.48 -1.32 c0.24 -0.24 0.4 -0.48 0.56 -0.72 s0.28 -0.48 0.36 -0.68 s0.12 -0.4 0.16 -0.56 l0 -0.28 l0 -0.08 l0 -0.04 l0 -0.04 c0 -0.08 -0.04 -0.12 -0.08 -0.16 l0 -0.04 l-0.04 -0.04 c0 -0.04 -0.04 -0.04 -0.08 -0.08 c-0.08 -0.08 -0.24 -0.2 -0.44 -0.28 s-0.48 -0.16 -0.76 -0.24 c-0.56 -0.12 -1.28 -0.2 -1.96 -0.16 c-0.6 0.04 -1.12 0.08 -1.64 0.2 c-0.64 0.4 -1.12 0.64 -1.32 0.76 c-0.32 1.84 -0.64 3.76 -0.88 5.44 c-0.08 0.68 -0.16 1.36 -0.2 1.96 c-0.04 0.56 -0.08 1.08 -0.12 1.52 c-0.08 0.88 -0.08 1.44 -0.08 1.44 s-0.2 0.08 -0.48 0.16 c-0.32 0.04 -0.68 0.12 -1.08 0.04 c-0.76 -0.2 -0.92 -0.36 -1.44 -0.32 c-0.52 0 -0.84 -0.12 -0.84 -0.12 c0.16 -1.44 0.36 -2.84 0.6 -4.2 l-0.28 -0.04 c-0.08 0.32 -0.16 0.64 -0.2 0.96 l-0.2 0.96 c-0.12 0.64 -0.2 1.28 -0.32 1.96 c0 0 -0.96 0 -1.72 -0.24 c0 0 0.04 -0.2 0.08 -0.56 c0 -0.16 0.04 -0.36 0.04 -0.6 c0.04 -0.24 0.08 -0.48 0.12 -0.8 c0.04 -0.28 0.12 -0.6 0.16 -0.96 s0.12 -0.72 0.2 -1.12 c0.12 -0.76 0.28 -1.6 0.44 -2.48 c0.36 -1.76 0.8 -3.68 1.24 -5.44 c0.44 -1.72 0.84 -3.36 1.12 -4.6 c0.36 -1.64 0.8 -3.52 1.12 -5.28 c0.2 -0.84 0.32 -1.68 0.48 -2.44 c0.12 -0.76 0.24 -1.4 0.32 -1.96 c0.12 -0.76 0.88 -1.32 1.68 -1.2 l0.84 0.12 c0.32 -0.2 0.68 -0.4 1.04 -0.6 c0.56 -0.28 1.2 -0.56 1.88 -0.8 c0.68 -0.2 1.44 -0.4 2.28 -0.48 s1.76 -0.08 2.76 0.2 c0.12 0.04 0.24 0.04 0.36 0.12 c0.16 0.04 0.28 0.08 0.4 0.12 l0.2 0.08 c0.04 0.04 0.12 0.08 0.2 0.12 c0.12 0.04 0.24 0.12 0.4 0.2 c0.48 0.28 0.96 0.68 1.36 1.12 c0.08 0.12 0.16 0.24 0.28 0.36 l0.24 0.36 c0.16 0.28 0.24 0.52 0.4 0.8 c0.04 0.12 0.08 0.24 0.12 0.4 l0.12 0.36 c0.04 0.12 0.08 0.24 0.08 0.36 l0.08 0.36 c0.04 0.16 0.04 0.24 0.04 0.36 l0.04 0.36 l0 0.36 l0 0.4 l0 0.2 l0 0.2 c-0.04 0.12 -0.04 0.24 -0.08 0.36 c0 0.16 -0.04 0.28 -0.08 0.4 c0 0.08 -0.04 0.2 -0.08 0.32 c-0.32 1.12 -0.88 2.08 -1.48 2.92 s-1.28 1.6 -2 2.28 c-0.48 0.44 -0.92 0.88 -1.4 1.28 c0.16 0.08 0.36 0.16 0.52 0.24 c0.76 0.4 1.56 1 2.16 1.84 c0.16 0.2 0.32 0.4 0.44 0.64 s0.2 0.44 0.28 0.68 c0.08 0.12 0.12 0.24 0.16 0.36 s0.04 0.24 0.08 0.36 z M14.88 15.52 c0.04 -0.08 0.04 -0.12 0.04 -0.2 l0 -0.24 l0 -0.08 l-0.04 -0.08 l0 -0.12 l0 -0.04 l-0.04 -0.04 l0 -0.08 c-0.04 -0.08 -0.08 -0.12 -0.12 -0.16 s-0.08 -0.04 -0.24 -0.12 c-0.16 -0.04 -0.4 -0.08 -0.72 -0.04 c-0.28 0 -0.6 0.04 -0.96 0.12 c-0.64 0.16 -1.32 0.44 -1.84 0.76 c-0.48 0.28 -0.84 0.52 -1.08 0.76 c-0.16 0.84 -0.32 1.72 -0.52 2.64 c-0.16 0.84 -0.36 1.68 -0.52 2.56 c0.44 -0.32 0.96 -0.64 1.44 -0.96 c0.72 -0.48 1.44 -1.04 2.12 -1.6 c0.64 -0.56 1.28 -1.16 1.72 -1.72 c0.24 -0.28 0.4 -0.56 0.52 -0.8 c0.16 -0.24 0.2 -0.44 0.24 -0.56 z M21.304000000000002 34.519999999999996 c0.12 -0.84 0.28 -1.76 0.44 -2.68 c0.36 -1.92 0.8 -3.96 1.24 -5.88 c0.4 -1.88 0.8 -3.64 1.08 -4.96 c0.4 -1.8 0.84 -3.84 1.16 -5.72 c0.2 -0.96 0.32 -1.84 0.48 -2.64 c0.12 -0.84 0.24 -1.56 0.32 -2.16 c0.12 -0.84 0.88 -1.44 1.68 -1.32 l2.2 0.32 c0.76 0.12 1.32 0.92 1.2 1.84 c-0.2 1.4 -0.56 3.64 -1.04 6.08 c-0.44 2.4 -1 5.08 -1.44 7.4 c-0.56 2.84 -1.2 6.6 -1.56 9.6 c-0.08 0.76 -0.16 1.48 -0.2 2.12 s-0.08 1.2 -0.12 1.68 c-0.08 0.96 -0.08 1.52 -0.08 1.52 s-0.2 0.12 -0.48 0.2 c-0.28 0.04 -0.68 0.12 -1.08 0.04 c-0.72 -0.2 -0.92 -0.36 -1.44 -0.36 c-0.52 0.04 -0.84 -0.12 -0.84 -0.12 c0.16 -1.52 0.36 -3.04 0.6 -4.52 l-0.28 -0.04 c-0.08 0.36 -0.16 0.68 -0.2 1.04 l-0.2 1.04 c-0.12 0.68 -0.2 1.4 -0.32 2.12 c0 0 -0.96 0 -1.72 -0.28 c0 0 0.04 -0.2 0.08 -0.56 c0 -0.16 0.04 -0.4 0.04 -0.64 c0.04 -0.28 0.08 -0.56 0.12 -0.88 s0.12 -0.68 0.16 -1.04 s0.12 -0.76 0.2 -1.2 z  M49.288 38.36 l0 0.6 l0 0.2 s-0.16 0.04 -0.44 0.12 c-0.28 0.04 -0.68 0.08 -1.04 0.04 c-0.76 -0.04 -0.96 -0.16 -1.48 -0.12 s-0.84 -0.04 -0.84 -0.04 c0.04 -0.48 0.08 -0.88 0.12 -1.32 c-0.04 0 -0.08 0.04 -0.08 0.04 c-0.12 0.08 -0.24 0.12 -0.36 0.2 l-0.12 0.84 l-0.56 0 c-0.28 0 -0.6 -0.04 -0.92 -0.08 l-0.6 0.24 c-0.48 0.2 -0.96 0.36 -1.52 0.52 l-0.84 0.24 c-0.16 0.04 -0.32 0.04 -0.48 0.08 s-0.32 0.04 -0.48 0.08 c-0.36 0.04 -0.72 0.08 -1.04 0.04 l-0.52 0 l-0.28 0 l-0.28 -0.04 c-0.2 -0.04 -0.36 -0.04 -0.56 -0.08 c-0.16 -0.04 -0.36 -0.08 -0.56 -0.12 c-0.12 -0.04 -0.2 -0.04 -0.28 -0.08 l-0.32 -0.12 l-0.28 -0.12 c-0.12 -0.04 -0.2 -0.08 -0.32 -0.12 c-0.76 -0.36 -1.52 -0.96 -2.08 -1.64 c-0.12 -0.2 -0.28 -0.36 -0.4 -0.56 c-0.12 -0.16 -0.2 -0.36 -0.32 -0.52 c-0.16 -0.4 -0.36 -0.76 -0.48 -1.12 c-0.04 -0.2 -0.12 -0.36 -0.16 -0.56 c-0.04 -0.16 -0.08 -0.36 -0.12 -0.52 c-0.04 -0.36 -0.12 -0.72 -0.12 -1.04 c-0.08 -0.68 -0.08 -1.36 -0.08 -1.96 c0.08 -1.28 0.24 -2.48 0.48 -3.6 c0.2 -1.12 0.48 -2.24 0.8 -3.24 c0.12 -0.48 0.28 -0.96 0.44 -1.48 c0.16 -0.48 0.32 -0.96 0.52 -1.52 c0.4 -1.04 0.8 -2.12 1.32 -3.16 c0.96 -2.08 2.16 -4.16 3.76 -5.96 c0.8 -0.92 1.72 -1.72 2.8 -2.36 c0.12 -0.08 0.24 -0.16 0.4 -0.2 c0.12 -0.08 0.28 -0.16 0.4 -0.2 c0.28 -0.16 0.56 -0.24 0.88 -0.36 c0.12 -0.04 0.28 -0.08 0.44 -0.12 c0.12 -0.04 0.28 -0.08 0.44 -0.12 l0.84 -0.12 l0.8 0 c0.28 0 0.52 0 0.76 0.04 c0.12 0 0.2 0.04 0.32 0.04 c0.12 0.04 0.2 0.04 0.32 0.08 c0.2 0.04 0.4 0.08 0.56 0.12 c0.32 0.12 0.6 0.2 0.8 0.28 c0.28 0.12 0.48 0.2 0.64 0.24 c0.6 0.32 1.08 0.76 1.48 1.2 c0.08 0.12 0.2 0.2 0.28 0.32 c0.04 0.08 0.08 0.12 0.12 0.2 c0.04 0.04 0.08 0.08 0.12 0.16 c0.16 0.2 0.28 0.4 0.4 0.6 c0.4 0.8 0.6 1.48 0.76 2.08 c0.24 1.2 0.24 2 0.24 2.6 c-0.04 0.56 -0.04 0.92 -0.08 1.12 s-0.04 0.28 -0.04 0.28 s-0.2 0.24 -0.52 0.4 s-0.68 0.28 -1.04 0.08 c-0.76 -0.36 -0.88 -0.64 -1.4 -0.64 c-0.28 0.04 -0.48 -0.04 -0.64 -0.08 c-0.12 -0.08 -0.2 -0.12 -0.2 -0.12 c0.16 -1 0.2 -1.96 0 -2.88 c-0.08 -0.48 -0.24 -0.92 -0.44 -1.28 l-0.12 -0.12 l-0.08 -0.16 c-0.04 -0.08 -0.12 -0.16 -0.2 -0.2 c-0.12 -0.16 -0.28 -0.32 -0.48 -0.4 l-0.2 -0.08 c-0.12 -0.08 -0.2 -0.08 -0.28 -0.12 l-0.28 -0.12 c-0.08 0 -0.2 -0.04 -0.28 -0.04 l-0.04 0.28 c0.08 0.04 0.16 0.04 0.24 0.08 l0.28 0.08 l0.12 0.04 c0.04 0.04 0.08 0.04 0.12 0.08 l0.2 0.08 c0.12 0.08 0.24 0.2 0.36 0.32 c0.04 0.04 0.08 0.12 0.12 0.16 l0.16 0.2 c0.16 0.32 0.28 0.68 0.36 1.04 c0.2 0.76 0.2 1.6 0.08 2.48 c0 0 -0.24 0 -0.56 -0.04 c-0.36 -0.04 -0.8 -0.08 -1.16 -0.24 l0 -0.2 c0.04 -0.16 0 -0.32 0.04 -0.64 c-0.04 -0.12 -0.04 -0.28 -0.04 -0.44 c-0.04 -0.08 -0.04 -0.16 -0.04 -0.28 c-0.04 -0.08 -0.04 -0.16 -0.08 -0.24 c0 -0.04 -0.04 -0.08 -0.04 -0.12 s0 -0.08 -0.04 -0.12 c0 -0.04 -0.04 -0.08 -0.04 -0.12 c0 0 -0.04 -0.04 -0.04 -0.08 l-0.04 -0.04 l0 0 l0 0 s0.08 0.04 -0.04 -0.04 c-0.04 -0.04 -0.12 -0.04 -0.16 -0.08 l-0.12 0 c-0.04 -0.04 -0.04 -0.04 -0.08 -0.04 s-0.08 -0.04 -0.12 -0.04 l-0.08 0 c-0.16 -0.04 -0.28 -0.04 -0.44 0 c-0.2 0 -0.4 0.08 -0.6 0.16 c-0.24 0.12 -0.52 0.28 -0.8 0.48 c-0.28 0.24 -0.6 0.48 -0.92 0.8 c-0.6 0.64 -1.2 1.44 -1.8 2.36 c-0.56 0.92 -1.08 1.92 -1.56 2.92 c-0.24 0.52 -0.48 1.04 -0.68 1.56 c-0.12 0.28 -0.2 0.52 -0.28 0.76 c-0.12 0.28 -0.2 0.56 -0.32 0.8 c-0.72 2.12 -1.24 4.08 -1.48 5.64 c-0.08 0.68 -0.16 1.36 -0.16 2 c0 0.68 0.08 1.28 0.2 1.76 c0.04 0.04 0.04 0.12 0.08 0.16 c0 0.04 0.04 0.08 0.04 0.12 c0.04 0.04 0.04 0.12 0.08 0.16 c0 0.04 0.04 0.04 0.04 0.08 c0.04 0.04 0.08 0.08 0.08 0.12 c0.04 0 0.04 0.04 0.08 0.04 c0.04 0.04 0.04 0.12 0.12 0.12 c0 0.04 0.04 0.04 0.04 0.04 c0.04 0.04 0.08 0.04 0.12 0.04 c0 0.04 0 0.04 0.04 0.04 l0.04 0.04 c0.04 0 0.08 0 0.12 0.04 l0.12 0 c0.04 0.04 0.08 0.04 0.12 0.04 c0.12 0.04 0.24 0.04 0.36 0.04 l0.4 0 c0.04 0.04 0.12 0 0.16 0 l0.16 0 c0.12 -0.04 0.28 -0.04 0.4 -0.08 c0.16 -0.04 0.28 -0.08 0.44 -0.08 c0.6 -0.16 1.2 -0.4 1.76 -0.64 s1.12 -0.56 1.6 -0.8 c0.44 -0.28 0.88 -0.56 1.24 -0.8 c0 -0.04 0.04 -0.04 0.04 -0.04 c0.04 -0.08 0.04 -0.12 0.04 -0.2 c0.12 -0.28 0.2 -0.6 0.28 -0.92 l0.08 -0.24 l0.04 -0.2 l0.12 -0.36 l0.04 -0.08 l0 0 l0 0 l0 -0.04 l0.04 -0.04 c0 -0.04 0.04 -0.04 0.04 -0.08 c0.04 -0.08 0.08 -0.12 0.08 -0.2 c0 -0.04 0 -0.08 -0.04 -0.08 l-0.16 0 c-0.08 0.04 -0.16 0.04 -0.24 0.04 l0 0 l-0.04 0 l0 0 l0 0 l-0.04 0 c-0.16 0 -0.28 0 -0.44 -0.04 c-0.28 0 -0.56 0 -0.88 -0.04 c-0.56 0 -1.12 -0.08 -1.6 -0.16 c-0.32 -0.04 -0.64 -0.28 -0.8 -0.56 c-0.2 -0.32 -0.2 -0.72 -0.08 -1.08 l0.68 -2.08 c0.12 -0.4 0.28 -0.72 0.48 -0.92 c0.16 -0.24 0.36 -0.36 0.56 -0.32 c0.32 0.04 0.8 0.08 1.4 0.12 c0.32 0 0.64 0.04 1 0.04 c0.16 0 0.32 0.04 0.44 0.04 l0.52 0 c0.32 0.04 0.68 0 1.04 0 c0.76 -0.04 1.44 0.04 2 0.2 c0.28 0.12 0.48 0.2 0.72 0.32 c0.2 0.12 0.4 0.28 0.6 0.48 c0.12 0.08 0.2 0.2 0.28 0.32 s0.16 0.24 0.2 0.36 c0.08 0.12 0.12 0.24 0.12 0.36 c0.04 0.12 0.08 0.2 0.08 0.32 c0.04 0.28 0.08 0.52 0.08 0.8 c-0.04 0.32 -0.08 0.6 -0.12 0.92 c0 0.08 -0.04 0.2 -0.08 0.32 c-0.04 0.08 -0.08 0.2 -0.08 0.28 c-0.08 0.2 -0.16 0.44 -0.2 0.64 c-0.12 0.44 -0.28 0.88 -0.4 1.32 c-0.04 0.28 -0.12 0.52 -0.16 0.8 c-0.08 0.24 -0.12 0.48 -0.16 0.72 c-0.2 1 -0.36 2 -0.48 2.88 c-0.08 0.88 -0.12 1.64 -0.16 2.16 z M61.952 39.88 c-1 0.16 -2.08 0.2 -3.16 -0.04 c-1.12 -0.24 -2.16 -0.8 -2.96 -1.48 c-0.8 -0.64 -1.36 -1.4 -1.76 -2.12 s-0.68 -1.36 -0.88 -1.96 c-0.36 -1.2 -0.48 -2.12 -0.56 -2.8 c0 -0.32 -0.04 -0.56 -0.04 -0.72 l0 -0.28 s0.04 -0.04 0.12 -0.16 c0.08 -0.08 0.2 -0.2 0.36 -0.32 c0.28 -0.24 0.64 -0.4 1.04 -0.24 c0.76 0.32 0.92 0.6 1.44 0.48 c0.28 -0.04 0.48 0 0.64 0.04 c0.12 0.04 0.2 0.08 0.2 0.08 c0 0.64 0.04 1.32 0.16 1.92 c0.12 0.64 0.28 1.28 0.56 1.84 c0.24 0.56 0.6 1.04 1.04 1.44 s0.96 0.68 1.52 0.8 l0.04 -0.28 c-0.48 -0.12 -0.92 -0.36 -1.28 -0.68 s-0.64 -0.76 -0.88 -1.24 c-0.24 -0.44 -0.4 -1 -0.52 -1.52 c-0.12 -0.56 -0.16 -1.12 -0.16 -1.72 c0 0 0.24 -0.04 0.56 -0.04 c0.32 -0.04 0.76 0 1.16 0.08 c0 0 0.04 0.08 0.04 0.2 s0 0.32 0.04 0.52 c0.04 0.24 0.08 0.52 0.16 0.8 s0.2 0.6 0.32 0.84 c0.16 0.28 0.32 0.52 0.48 0.64 s0.32 0.24 0.6 0.28 c0.28 0.08 0.72 0.08 1.24 -0.04 c0.56 -0.12 1.16 -0.32 1.84 -0.64 c0.32 -0.12 0.68 -0.32 0.96 -0.44 c0.12 -0.12 0.24 -0.2 0.36 -0.28 s0.24 -0.16 0.28 -0.16 c0.08 -0.04 0.12 -0.12 0.12 -0.2 c0 -0.04 0 -0.08 -0.04 -0.12 c0.04 0.04 -0.16 -0.28 -0.4 -0.52 c-0.44 -0.48 -1.08 -1.04 -1.72 -1.56 c-0.72 -0.56 -1.4 -1.12 -2.04 -1.64 c-0.36 -0.32 -0.72 -0.6 -1.08 -0.92 c-0.36 -0.36 -0.72 -0.72 -1.12 -1.16 c-0.08 -0.12 -0.2 -0.24 -0.28 -0.36 s-0.2 -0.32 -0.28 -0.44 c-0.12 -0.24 -0.28 -0.44 -0.36 -0.68 c-0.12 -0.28 -0.24 -0.48 -0.36 -0.76 l-0.12 -0.36 s-0.08 -0.24 -0.12 -0.4 c-0.28 -1 -0.36 -2 -0.28 -2.88 c0.08 -1.2 0.4 -2.36 0.84 -3.44 c0.24 -0.52 0.48 -1 0.76 -1.48 s0.6 -0.96 0.92 -1.4 c0.36 -0.44 0.68 -0.84 1.04 -1.24 s0.72 -0.8 1.12 -1.16 l1.2 -1.08 c0.2 -0.16 0.44 -0.32 0.64 -0.48 c0.12 -0.08 0.24 -0.16 0.32 -0.24 l0.12 -0.08 l0.04 0 l0.04 -0.04 l0.24 -0.16 c0.16 -0.12 0.32 -0.2 0.48 -0.28 c0.08 -0.08 0.2 -0.12 0.28 -0.16 l0.28 -0.12 c0.2 -0.12 0.36 -0.2 0.56 -0.28 s0.4 -0.12 0.6 -0.2 c0.76 -0.24 1.52 -0.36 2.24 -0.28 s1.4 0.32 2 0.68 c0.6 0.4 1.08 0.88 1.44 1.44 c0.32 0.6 0.56 1.24 0.68 1.88 c0.16 0.64 0.16 1.32 0.16 1.96 c-0.04 0.32 -0.04 0.64 -0.12 0.92 c0 0.16 -0.04 0.32 -0.08 0.44 c0 0.12 -0.04 0.2 -0.08 0.32 c-0.08 0.44 -0.2 0.8 -0.36 1.16 c-0.36 1.08 -1.08 1.88 -1.76 2.32 c-0.36 0.2 -0.68 0.32 -0.96 0.32 s-0.48 -0.04 -0.6 -0.2 l-1.44 -1.68 c-0.16 -0.16 -0.24 -0.36 -0.28 -0.56 c-0.04 -0.16 -0.08 -0.4 -0.04 -0.6 c0 -0.4 0.08 -0.88 0.28 -1.36 c0.08 -0.2 0.16 -0.44 0.2 -0.68 c0.04 -0.16 0.04 -0.16 0.04 -0.2 l0 -0.12 c0 -0.12 0 -0.32 -0.12 -0.44 c-0.04 -0.08 -0.12 -0.08 -0.24 -0.08 c-0.08 0 -0.16 0 -0.24 0.04 c-0.04 0.04 -0.08 0.04 -0.12 0.08 c-0.04 0 -0.08 0.04 -0.12 0.04 l-0.04 0.04 l-0.04 0.04 l-0.04 0 l0 0.04 c-0.2 0.12 -0.36 0.24 -0.56 0.4 s-0.36 0.28 -0.56 0.44 c-0.72 0.64 -1.44 1.4 -2 2.16 c-0.6 0.8 -1.08 1.64 -1.32 2.4 c-0.28 0.8 -0.32 1.52 -0.16 2.16 c0.04 0.28 0.16 0.6 0.32 0.88 c0.04 0.08 0.12 0.16 0.16 0.24 l0 0.04 l0.04 0 l0.04 0.08 c0.08 0.08 0.2 0.24 0.32 0.36 c0.36 0.36 0.84 0.76 1.4 1.16 c0.56 0.48 1.16 0.92 1.76 1.4 c0.64 0.48 1.32 1 2 1.68 c0.36 0.32 0.68 0.68 1.04 1.12 c0.08 0.08 0.2 0.24 0.28 0.36 c0.12 0.12 0.2 0.32 0.32 0.48 c0.2 0.32 0.36 0.64 0.52 1 c0.12 0.32 0.24 0.72 0.32 1.08 c0.04 0.36 0.08 0.72 0.04 1.12 c-0.04 0.72 -0.24 1.48 -0.6 2.12 c-0.36 0.68 -0.84 1.24 -1.44 1.76 c-0.28 0.24 -0.48 0.4 -0.72 0.56 c-0.08 0.08 -0.2 0.16 -0.32 0.24 s-0.2 0.12 -0.32 0.2 c-0.2 0.12 -0.44 0.24 -0.64 0.36 s-0.4 0.24 -0.6 0.32 c-0.2 0.12 -0.4 0.2 -0.6 0.32 c-0.2 0.08 -0.44 0.2 -0.64 0.28 c-0.88 0.36 -1.8 0.64 -2.8 0.8 z M72.89599999999999 34.480000000000004 c0.12 -0.84 0.28 -1.76 0.44 -2.72 c0.36 -1.88 0.8 -3.96 1.24 -5.88 c0.4 -1.88 0.8 -3.64 1.08 -5 c0.4 -1.8 0.84 -3.84 1.16 -5.72 c0.2 -0.96 0.32 -1.88 0.48 -2.68 c0.12 -0.84 0.24 -1.56 0.32 -2.16 c0.12 -0.84 0.88 -1.44 1.68 -1.32 l2.2 0.32 c0.76 0.12 1.32 0.92 1.2 1.8 c-0.2 1.44 -0.56 3.68 -1.04 6.12 c-0.24 1.4 -0.52 2.84 -0.8 4.24 c0.08 0 0.2 -0.04 0.32 -0.04 c1 -0.04 2.08 -0.08 3.04 -0.12 c1.04 0 2.32 -0.04 3.52 0 c0 -0.16 0.04 -0.28 0.08 -0.44 c0.36 -1.8 0.8 -3.84 1.16 -5.72 c0.16 -0.96 0.32 -1.88 0.44 -2.68 c0.12 -0.84 0.24 -1.56 0.32 -2.16 c0.12 -0.84 0.88 -1.44 1.68 -1.32 l2.2 0.32 c0.8 0.12 1.32 0.92 1.2 1.8 c-0.2 1.44 -0.56 3.68 -1.04 6.12 c-0.44 2.48 -1 5.12 -1.44 7.48 c-0.56 2.84 -1.2 6.6 -1.52 9.64 c-0.08 0.76 -0.16 1.48 -0.24 2.12 c-0.04 0.64 -0.08 1.24 -0.12 1.72 c-0.04 0.96 -0.08 1.52 -0.08 1.52 s-0.2 0.12 -0.48 0.2 c-0.28 0.04 -0.68 0.12 -1.04 0.04 c-0.76 -0.2 -0.92 -0.36 -1.48 -0.36 c-0.52 0.04 -0.8 -0.12 -0.8 -0.12 c0.16 -1.52 0.32 -3.04 0.56 -4.56 l-0.28 -0.04 c-0.04 0.36 -0.12 0.72 -0.2 1.04 l-0.16 1.08 c-0.16 0.68 -0.24 1.4 -0.36 2.08 c0 0 -0.92 0.04 -1.72 -0.24 c0 0 0.04 -0.2 0.08 -0.56 c0 -0.16 0.04 -0.4 0.08 -0.64 c0.04 -0.28 0.08 -0.56 0.12 -0.88 s0.08 -0.68 0.12 -1.08 c0.08 -0.36 0.12 -0.76 0.2 -1.2 c0.12 -0.84 0.28 -1.76 0.48 -2.72 c0.28 -1.52 0.6 -3.16 0.96 -4.72 c-0.48 -0.08 -0.96 -0.12 -1.44 -0.16 c-0.72 -0.08 -1.4 -0.12 -1.92 -0.12 c-1.04 0 -2.32 0.08 -3.28 0.12 c-0.44 2.44 -0.88 5.2 -1.16 7.48 c-0.08 0.76 -0.16 1.48 -0.2 2.12 s-0.08 1.24 -0.12 1.72 c-0.08 0.96 -0.08 1.52 -0.08 1.52 s-0.2 0.12 -0.48 0.2 c-0.28 0.04 -0.68 0.12 -1.08 0.04 c-0.72 -0.2 -0.92 -0.36 -1.44 -0.36 c-0.52 0.04 -0.84 -0.12 -0.84 -0.12 c0.16 -1.52 0.36 -3.04 0.6 -4.56 l-0.28 -0.04 c-0.08 0.36 -0.16 0.72 -0.2 1.04 l-0.2 1.08 c-0.12 0.68 -0.2 1.4 -0.32 2.08 c0 0 -0.96 0.04 -1.72 -0.24 c0 0 0.04 -0.2 0.08 -0.56 c0 -0.16 0.04 -0.4 0.04 -0.64 c0.04 -0.28 0.08 -0.56 0.12 -0.88 s0.12 -0.68 0.16 -1.08 c0.04 -0.36 0.12 -0.76 0.2 -1.2 z M112.92 30.68 l-0.12 0.44 c-0.36 1.08 -0.8 2.12 -1.32 3.16 c-0.52 1 -1.08 2 -1.88 2.96 c-0.36 0.44 -0.8 0.92 -1.32 1.32 c-0.48 0.44 -1.08 0.84 -1.76 1.12 c-0.2 0.08 -0.36 0.12 -0.56 0.2 c-0.08 0 -0.16 0.04 -0.24 0.04 c-0.08 0.04 -0.16 0.04 -0.24 0.08 c-0.16 0.04 -0.36 0.08 -0.52 0.08 c-0.16 0.04 -0.36 0.04 -0.52 0.08 c-0.68 0.04 -1.4 -0.04 -2 -0.2 c-0.88 -0.2 -1.64 -0.6 -2.28 -1.08 s-1.2 -1 -1.64 -1.56 c-0.92 -1.16 -1.52 -2.4 -1.92 -3.68 c-0.04 -0.16 -0.08 -0.32 -0.16 -0.48 c-0.04 -0.16 -0.08 -0.4 -0.12 -0.52 c-0.04 -0.32 -0.12 -0.64 -0.16 -0.92 c-0.12 -0.6 -0.2 -1.2 -0.24 -1.76 c-0.16 -1.2 -0.2 -2.36 -0.2 -3.56 c0 -1.16 0.12 -2.32 0.28 -3.48 c0.08 -0.28 0.12 -0.56 0.16 -0.8 c0.04 -0.12 0.08 -0.28 0.08 -0.4 c0.04 -0.12 0.04 -0.2 0.08 -0.32 l0.12 -0.72 s0.12 -0.48 0.16 -0.72 c0.2 -0.96 0.48 -1.96 0.84 -2.88 c0.36 -0.88 0.72 -1.64 1.08 -2.28 c0.28 -0.56 0.64 -1.08 1 -1.44 c-0.12 -0.16 -0.28 -0.28 -0.36 -0.52 c0 0 0.04 -0.12 0.2 -0.36 c0.04 -0.12 0.16 -0.24 0.24 -0.44 c0.12 -0.16 0.28 -0.36 0.44 -0.6 c0.36 -0.44 0.84 -1.04 1.56 -1.6 c0.4 -0.28 0.84 -0.52 1.32 -0.76 c0.24 -0.08 0.48 -0.2 0.76 -0.28 c0.16 -0.04 0.28 -0.08 0.4 -0.12 c0.16 -0.04 0.28 -0.04 0.44 -0.08 c0.12 -0.04 0.28 -0.04 0.4 -0.08 c0.16 0 0.28 -0.04 0.44 -0.04 c0.12 0 0.28 -0.04 0.4 -0.04 l0.44 0 c0.28 0 0.52 0.04 0.8 0.04 c0.12 0.04 0.24 0.04 0.4 0.08 c0.12 0 0.24 0 0.4 0.04 c0.56 0.08 1.16 0.24 1.84 0.52 s1.36 0.68 1.96 1.24 s1.08 1.2 1.4 1.84 c0.36 0.64 0.56 1.28 0.72 1.84 c0.32 1.04 0.56 2.16 0.76 3.28 c0.32 2.32 0.32 4.72 0 7.08 c-0.2 1.16 -0.4 2.32 -0.72 3.44 c-0.12 0.6 -0.28 1.12 -0.44 1.68 c-0.08 0.28 -0.16 0.52 -0.28 0.8 z M109.16 22.12 c0.04 -0.84 0.04 -1.68 -0.04 -2.48 s-0.2 -1.6 -0.36 -2.36 c-0.04 -0.16 -0.08 -0.36 -0.12 -0.56 c-0.08 -0.16 -0.12 -0.36 -0.16 -0.56 c-0.08 -0.16 -0.12 -0.36 -0.2 -0.52 c0 -0.08 0 -0.08 -0.04 -0.12 l0 -0.12 c-0.04 -0.08 -0.08 -0.16 -0.08 -0.2 c-0.12 -0.24 -0.2 -0.44 -0.32 -0.56 c-0.08 -0.08 -0.12 -0.16 -0.2 -0.2 c-0.04 -0.04 -0.12 -0.08 -0.28 -0.12 c-0.12 -0.04 -0.32 -0.08 -0.56 -0.12 l-0.36 0 c-0.04 0 -0.12 0 -0.16 -0.04 c-0.08 0 -0.08 0.04 -0.16 0.04 l-0.12 0 l-0.12 0 l-0.08 0 s-0.08 0.04 -0.08 0.04 c-0.24 0.04 -0.36 0.12 -0.48 0.2 c-0.12 0.12 -0.28 0.24 -0.4 0.4 c-0.12 0.2 -0.2 0.4 -0.28 0.56 c-0.12 0.16 -0.16 0.32 -0.2 0.44 c-0.04 0.04 -0.04 0.08 -0.08 0.12 l0 0.04 s-0.04 0.04 -0.16 0.08 s-0.24 0.08 -0.4 0.12 c-0.08 0.04 -0.16 0.04 -0.24 0.04 c-0.12 0.28 -0.24 0.56 -0.4 0.84 l-0.24 0.48 s-0.16 0.36 -0.24 0.52 c-0.16 0.32 -0.32 0.68 -0.48 1.08 c-0.12 0.36 -0.24 0.76 -0.36 1.2 c-0.08 0.44 -0.2 0.92 -0.32 1.44 c-0.04 0.32 -0.08 0.6 -0.16 0.88 l-0.04 0.2 l-0.04 0.2 c-0.04 0.16 -0.04 0.28 -0.08 0.4 c-0.08 0.52 -0.16 1.04 -0.2 1.6 c-0.08 1.08 -0.08 2.28 0 3.48 c0.04 0.6 0.12 1.2 0.24 1.8 c0 0.16 0.04 0.32 0.04 0.48 c0.04 0.16 0.08 0.32 0.08 0.44 l0.08 0.2 l0 0.12 c0 0.04 0 0.08 0.04 0.08 c0 0.12 0.04 0.24 0.08 0.36 c0.16 0.52 0.36 1 0.6 1.44 c0.28 0.44 0.56 0.8 0.84 1.08 s0.56 0.44 0.76 0.48 c0.2 0.08 0.36 0.08 0.64 0 l0.04 0 c0 -0.04 0.04 -0.04 0.04 -0.04 l0.04 0 c0.04 -0.04 0.12 -0.08 0.16 -0.08 c0.12 -0.08 0.24 -0.2 0.4 -0.32 c0.28 -0.24 0.6 -0.64 0.88 -1.04 c0.68 -1.04 1.32 -2.44 1.8 -4 l0.12 -0.28 l0.08 -0.32 c0.08 -0.2 0.12 -0.4 0.2 -0.6 c0.12 -0.44 0.24 -0.84 0.32 -1.24 c0.2 -0.84 0.4 -1.68 0.52 -2.52 s0.2 -1.68 0.24 -2.48 z M109.92 11.760000000000002 l0.16 -0.28 c-0.4 -0.28 -0.84 -0.56 -1.28 -0.72 s-0.88 -0.28 -1.32 -0.36 c-0.2 -0.04 -0.4 -0.08 -0.64 -0.12 c-0.2 0 -0.4 -0.04 -0.64 -0.04 l-0.36 0 c-0.12 0 -0.24 0.04 -0.36 0.04 l-0.32 0 l-0.36 0.08 c-0.24 0.04 -0.48 0.12 -0.72 0.16 c-0.12 0.04 -0.24 0.12 -0.36 0.16 c-0.08 0.04 -0.2 0.08 -0.32 0.16 l-0.32 0.16 c-0.12 0.08 -0.2 0.12 -0.32 0.2 c-0.2 0.12 -0.36 0.32 -0.56 0.44 c-0.24 0.24 -0.48 0.48 -0.68 0.76 l0.04 0 l0.32 0.2 c0.04 -0.08 0.12 -0.12 0.16 -0.2 c0.6 -0.72 1.44 -1.32 2.4 -1.6 s1.96 -0.24 2.8 -0.12 c0.48 0.08 0.92 0.16 1.4 0.32 c0.44 0.2 0.88 0.44 1.28 0.76 z M130.184 29.32 c-0.16 0.08 -0.32 0.2 -0.48 0.28 c-0.64 0.36 -1.36 0.64 -2.12 0.8 s-1.52 0.2 -2.24 0.08 c-0.76 -0.08 -1.4 -0.28 -1.96 -0.48 c-0.36 -0.16 -0.64 -0.28 -0.96 -0.44 c-0.28 1.72 -0.56 3.52 -0.76 5.08 c-0.08 0.72 -0.12 1.4 -0.2 2 c-0.04 0.64 -0.08 1.16 -0.12 1.64 c-0.08 0.92 -0.08 1.44 -0.08 1.44 s-0.2 0.12 -0.48 0.2 s-0.68 0.12 -1.08 0.04 c-0.72 -0.2 -0.92 -0.36 -1.44 -0.32 c-0.52 0 -0.84 -0.12 -0.84 -0.12 c0.12 -0.76 0.16 -1.48 0.28 -2.2 l0.16 -1.12 c0.04 -0.36 0.12 -0.72 0.16 -1.08 l-0.28 0 l-0.2 1 l-0.2 1 c-0.12 0.64 -0.2 1.32 -0.32 2 c0 0 -0.96 0.04 -1.72 -0.24 c0 0 0.04 -0.2 0.08 -0.52 c0 -0.2 0.04 -0.4 0.04 -0.64 l0.12 -0.84 c0.04 -0.32 0.12 -0.64 0.16 -1 s0.12 -0.76 0.2 -1.16 c0.12 -0.8 0.28 -1.68 0.44 -2.6 c0.36 -1.84 0.8 -3.8 1.24 -5.64 c0.4 -1.8 0.8 -3.52 1.08 -4.8 c0.76 -3.44 1.64 -7.84 1.96 -10.08 c0.08 -0.84 0.84 -1.4 1.64 -1.28 l0.24 0.04 c0.12 -0.08 0.2 -0.12 0.32 -0.16 c0.52 -0.24 1.08 -0.44 1.68 -0.6 c0.6 -0.2 1.24 -0.32 1.92 -0.4 s1.4 -0.16 2.2 -0.16 c0.4 0 0.8 0 1.32 0.08 c0.12 0 0.28 0.04 0.4 0.08 l0.48 0.12 s0.28 0.08 0.4 0.16 c0.16 0.04 0.28 0.08 0.44 0.16 c0.56 0.28 1.08 0.64 1.52 1.08 s0.8 0.96 1.08 1.48 c0.56 1.04 0.84 2.04 0.96 3 s0.12 1.84 0.08 2.72 c0 0.24 -0.04 0.44 -0.04 0.64 l-0.04 0.32 l-0.04 0.28 c-0.04 0.36 -0.12 0.76 -0.16 1.16 c-0.16 0.92 -0.36 1.92 -0.72 3 c-0.16 0.56 -0.36 1.08 -0.6 1.64 c-0.28 0.56 -0.56 1.12 -0.92 1.68 s-0.8 1.12 -1.32 1.64 c-0.24 0.24 -0.52 0.48 -0.84 0.72 c-0.16 0.12 -0.32 0.24 -0.44 0.32 z M124.744 26.64 l0.12 -0.28 c-0.56 -0.28 -1.12 -0.64 -1.64 -1.08 l0 0.08 c-0.04 0.12 -0.04 0.2 -0.08 0.32 c0.52 0.36 1.04 0.72 1.6 0.96 z M129.144 21.92 c0.04 -0.08 0.08 -0.2 0.12 -0.32 c0.28 -0.84 0.52 -1.76 0.68 -2.6 c0.04 -0.2 0.04 -0.44 0.08 -0.68 c0 -0.08 0.04 -0.2 0.04 -0.32 c0.04 -0.08 0.04 -0.16 0.04 -0.24 c0.04 -0.36 0.04 -0.72 0.04 -1 c0 -0.4 -0.04 -0.8 -0.08 -1.16 c-0.08 -0.36 -0.16 -0.68 -0.28 -0.88 s-0.2 -0.28 -0.28 -0.32 c-0.04 -0.04 -0.08 -0.04 -0.16 -0.08 l-0.04 0 l0 0 l-0.04 -0.04 l-0.12 0 c-0.16 0 -0.36 -0.04 -0.56 -0.04 s-0.44 0.04 -0.64 0.04 c-0.44 0.04 -0.84 0.08 -1.24 0.16 c-0.56 0.08 -1.08 0.24 -1.44 0.36 c-0.16 1.04 -0.36 2.2 -0.6 3.44 c-0.36 1.6 -0.68 3.32 -1 4.96 c0.16 0.16 0.36 0.32 0.56 0.52 c0.44 0.32 0.96 0.68 1.4 0.88 c0.2 0.08 0.4 0.16 0.56 0.16 c0.2 0.04 0.32 0.04 0.56 -0.04 c0.04 0 0.08 0 0.16 -0.04 l0.08 -0.04 l0.08 -0.04 c0.08 0 0.12 -0.04 0.2 -0.08 l0.04 -0.04 l0.04 -0.04 l0.08 -0.04 l0.08 -0.04 l0.08 -0.08 s0.12 -0.08 0.16 -0.12 c0.04 -0.08 0.12 -0.12 0.16 -0.16 c0.08 -0.08 0.12 -0.16 0.16 -0.2 l0.12 -0.12 l0.08 -0.12 c0.04 -0.08 0.08 -0.12 0.16 -0.2 c0.08 -0.2 0.2 -0.36 0.28 -0.56 c0.12 -0.16 0.2 -0.36 0.28 -0.56 c0.08 -0.12 0.12 -0.2 0.16 -0.32 z" fill="#FE5757"></path></g><g id="SvgjsG2370" featurekey="sloganFeature-0" transform="matrix(1.2743267873533364,0,0,1.2743267873533364,22.663784759108147,68.79936147031968)" fill="#FE5757"><path d="M8.24 8.3 l-2.48 5.14 l0 5.32 c0 0.44 -0.32 0.64 -0.64 0.64 c-0.34 0 -0.66 -0.22 -0.66 -0.64 l0 -5.32 l-2.54 -5.12 c-0.42 -0.88 0.8 -1.4 1.22 -0.56 l1.98 3.96 l1.9 -3.94 c0.44 -0.92 1.64 -0.34 1.22 0.52 z M12.56 15.86 l0 -4.96 c0 -2.4 1.24 -3.68 3.64 -3.68 l0.52 0 c2.38 0 3.64 1.28 3.64 3.68 l0 4.96 c0 2.2 -1.46 3.64 -3.64 3.64 l-0.52 0 c-2.22 0 -3.64 -1.46 -3.64 -3.64 z M16.200000000000003 18.16 l0.52 0 c1.44 0 2.3 -0.9 2.3 -2.3 l0 -4.96 c0 -1.56 -0.76 -2.36 -2.3 -2.36 l-0.52 0 c-1.52 0 -2.36 0.82 -2.36 2.36 l0 4.96 c0 1.46 0.92 2.3 2.36 2.3 z M25.060000000000002 15.86 l0 -7.86 c0 -0.42 0.34 -0.64 0.66 -0.64 c0.34 0 0.66 0.22 0.66 0.64 l0 7.86 c0 1.44 0.98 2.3 2.34 2.3 l0.5 0 c1.4 0 2.36 -0.98 2.36 -2.3 l0 -7.86 c0 -0.42 0.32 -0.64 0.66 -0.64 c0.32 0 0.66 0.22 0.66 0.64 l0 7.86 c0 2.06 -1.46 3.64 -3.68 3.64 l-0.5 0 c-2.22 0 -3.66 -1.54 -3.66 -3.64 z M39.1 15.9 l0 2.86 c0 0.44 -0.34 0.64 -0.66 0.64 c-0.34 0 -0.66 -0.2 -0.66 -0.64 l0 -10.74 c0 -0.4 0.22 -0.66 0.66 -0.66 l2.7 0 c0.76 0 3.16 0.22 3.16 2.92 l0 2.5 c0 1.52 -0.56 2.48 -1.84 2.9 l1.36 2.74 c0.28 0.54 -0.14 0.98 -0.58 0.98 c-0.24 0 -0.54 -0.16 -0.7 -0.5 l-1.46 -3 l-1.98 0 z M42.98 12.780000000000001 l0 -2.5 c0 -0.48 -0.18 -1.58 -1.84 -1.58 l-2.04 0 l0 5.86 l1.86 0 c0.98 0 2.02 -0.22 2.02 -1.78 z M56.599999999999994 18.72 l0 -10.72 c0 -0.32 0.16 -0.64 0.6 -0.64 l2.62 0 c1.98 0 3.06 0.72 3.06 2.72 c0 0.8 -0.1 1.58 -0.6 2.12 c1.14 0.8 1.34 2.18 1.34 3.58 c0 2.46 -1.34 3.62 -3.64 3.62 l-2.68 0 c-0.34 0 -0.7 -0.12 -0.7 -0.68 z M57.94 18.08 l1.74 0 c1.66 0 2.58 -0.68 2.58 -2.3 c0 -1.66 -0.42 -2.78 -2.04 -2.78 l-2.28 0 l0 5.08 z M61.559999999999995 10.08 c0 -1.2 -0.84 -1.38 -1.74 -1.38 l-1.88 0 l0 2.96 l1.84 0 c1.26 0 1.78 -0.36 1.78 -1.58 z M68.14 18.78 l0 -10.78 c0 -0.42 0.32 -0.64 0.64 -0.64 s0.66 0.22 0.66 0.64 l0 10.78 c0 0.86 -1.3 0.86 -1.3 0 z M74.19999999999999 15.879999999999999 l0 -4.82 c0 -2.88 1.58 -3.74 3.9 -3.74 c1.92 0 3.78 0.98 3.78 3 c0 0.44 -0.32 0.66 -0.66 0.66 s-0.68 -0.22 -0.68 -0.66 c0 -1.02 -1.12 -1.7 -2.44 -1.7 c-1.82 0 -2.58 0.74 -2.58 2.44 l0 4.82 c0 1.74 0.96 2.28 2.58 2.28 c1.92 0 2.6 -0.92 2.6 -2.7 l0 -0.84 l-1.8 0 c-0.42 0 -0.64 -0.32 -0.64 -0.66 s0.22 -0.68 0.64 -0.68 l2.5 0 c0.4 0 0.62 0.4 0.62 0.68 l0 1.5 c0 2.88 -1.12 4 -3.92 4 c-2.64 0 -3.9 -0.96 -3.9 -3.58 z M97.85999999999999 7.32 c1.82 0 3.76 0.7 3.76 2.76 c0 0.48 -0.32 0.7 -0.66 0.7 s-0.7 -0.24 -0.7 -0.7 c0 -0.16 -0.1 -1.46 -2.4 -1.46 c-1.82 0 -2.62 0.72 -2.62 2.44 l0 4.82 c0 1.74 0.98 2.28 2.62 2.28 c1.66 0 2.58 -0.68 2.58 -2.3 c0 -0.46 0.34 -0.68 0.66 -0.68 c0.34 0 0.66 0.22 0.66 0.68 c0 2.7 -1.5 3.6 -3.9 3.6 c-2.6 0 -3.92 -0.96 -3.92 -3.58 l0 -4.82 c0 -2.84 1.42 -3.74 3.92 -3.74 z M106.46 18.76 l0 -10.76 c0 -0.42 0.32 -0.62 0.66 -0.62 s0.68 0.2 0.68 0.62 l0 4.58 l4.54 0 l0 -4.58 c0 -0.42 0.32 -0.64 0.64 -0.64 s0.66 0.22 0.66 0.64 l0 10.76 c0 0.42 -0.34 0.64 -0.66 0.64 s-0.64 -0.22 -0.64 -0.64 l0 -4.82 l-4.54 0 l0 4.82 c0 0.42 -0.34 0.64 -0.68 0.64 s-0.66 -0.22 -0.66 -0.64 z M118.53999999999999 15.86 l0 -4.96 c0 -2.4 1.24 -3.68 3.64 -3.68 l0.52 0 c2.38 0 3.64 1.28 3.64 3.68 l0 4.96 c0 2.2 -1.46 3.64 -3.64 3.64 l-0.52 0 c-2.22 0 -3.64 -1.46 -3.64 -3.64 z M122.17999999999999 18.16 l0.52 0 c1.44 0 2.3 -0.9 2.3 -2.3 l0 -4.96 c0 -1.56 -0.76 -2.36 -2.3 -2.36 l-0.52 0 c-1.52 0 -2.36 0.82 -2.36 2.36 l0 4.96 c0 1.46 0.92 2.3 2.36 2.3 z M131.14 18.78 l0 -10.78 c0 -0.42 0.32 -0.64 0.64 -0.64 s0.66 0.22 0.66 0.64 l0 10.78 c0 0.86 -1.3 0.86 -1.3 0 z M141.08 7.32 c1.82 0 3.76 0.7 3.76 2.76 c0 0.48 -0.32 0.7 -0.66 0.7 s-0.7 -0.24 -0.7 -0.7 c0 -0.16 -0.1 -1.46 -2.4 -1.46 c-1.82 0 -2.62 0.72 -2.62 2.44 l0 4.82 c0 1.74 0.98 2.28 2.62 2.28 c1.66 0 2.58 -0.68 2.58 -2.3 c0 -0.46 0.34 -0.68 0.66 -0.68 c0.34 0 0.66 0.22 0.66 0.68 c0 2.7 -1.5 3.6 -3.9 3.6 c-2.6 0 -3.92 -0.96 -3.92 -3.58 l0 -4.82 c0 -2.84 1.42 -3.74 3.92 -3.74 z M149.68 18.7 l0 -10.64 c0 -0.46 0.36 -0.7 0.7 -0.7 l4.6 0 c0.44 0 0.66 0.32 0.66 0.66 s-0.22 0.68 -0.66 0.68 l-3.96 0 l0 3.88 l3.14 0 c0.46 0 0.68 0.32 0.68 0.66 s-0.24 0.7 -0.68 0.7 l-3.14 0 l0 4.14 l3.96 0 c0.42 0 0.64 0.34 0.64 0.66 c0 0.34 -0.22 0.66 -0.64 0.66 l-4.6 0 c-0.34 0 -0.7 -0.12 -0.7 -0.7 z" fill="#FE5757"></path></g></svg>