<svg xmlns:xlink="http://www.w3.org/1999/xlink" xmlns="http://www.w3.org/2000/svg" preserveAspectRatio="xMidYMid meet" className="css-98pqax" id="dhghegdh" viewBox="0 0 350 81.98"><defs id="SvgjsDefs1049"></defs><g id="SvgjsG1050" featurekey="nameFeature-0" transform="matrix(1.45057930272198,0,0,1.45057930272198,-0.8034383565692726,-5.304470831530723)" fill="#111111"><path d="M17.56 24.8 c0.56 6.32 0.96 12.72 1 14.88 c0 1.24 -1.2 1.88 -2.52 1.84 s-2.72 -0.68 -3.16 -2 c-0.08 -0.16 -0.12 -0.4 -0.2 -0.64 c-0.52 0.24 -1.32 0.52 -2.44 0.84 c-0.6 0.16 -1.32 0.36 -2.2 0.44 c-0.8 0.08 -2.2 0 -3.36 -0.6 c-1.16 -0.56 -2.12 -1.76 -2.6 -3.08 c-0.44 -1.2 -0.6 -2.32 -0.68 -3.36 c-0.2 -1.84 -0.36 -3.8 -0.48 -5.76 c-0.24 -3.96 -0.4 -7.92 -0.36 -11.28 s0.24 -6.16 0.52 -7.64 c0.08 -0.4 0.2 -0.76 0.4 -1.04 c0.2 -0.32 0.48 -0.56 0.76 -0.72 c0.56 -0.28 1.2 -0.28 1.84 -0.08 c0.6 0.2 1.2 0.64 1.64 1.16 c0.48 0.48 0.84 1.16 0.88 1.92 c0.16 1.12 0.16 3 0.24 5.44 s0.12 5.36 0.24 8.44 c0.08 3.12 0.2 6.4 0.32 9.48 c0 0.6 0.08 1.12 0.16 1.48 c0.08 0.2 0.04 0.12 0.04 0.12 l0 0 c0 0.04 0 0.04 0.04 0.04 c0.32 0.04 0.68 0 1.04 -0.04 c1.2 -0.12 2.4 -0.16 3.32 0 c-0.2 -1.96 -0.36 -4.24 -0.52 -6.64 c-0.36 -5.08 -0.56 -10.68 -0.64 -14.52 c-0.04 -2.72 0.92 -4.12 2 -4.56 c1.04 -0.4 2.28 0.2 2.72 1.48 c0.64 1.84 1.4 8.08 2 14.4 z M40.465 32 c1.64 0.72 2.08 2 1.88 3.12 s-1.04 2.04 -2 2.08 c-1.36 0 -5.44 -1.16 -9.48 -2.52 c-0.52 -0.16 -1.04 -0.36 -1.52 -0.52 c0.08 1.68 0.16 3.08 0.16 4 c0.08 2.4 -1.12 3.68 -2.44 3.6 s-2.72 -1.32 -3.24 -3.88 c-0.28 -1.4 -0.52 -3.52 -0.8 -6.16 c-0.68 -0.32 -1.28 -0.6 -1.64 -0.8 c-0.4 -0.2 -0.6 -0.64 -0.56 -1.2 c0.04 -0.52 0.28 -1.08 0.64 -1.64 c0.32 -0.48 0.72 -0.96 1.12 -1.32 c-0.16 -2 -0.32 -4.2 -0.48 -6.48 c-0.12 -1.44 -0.2 -3.04 -0.36 -7.08 c0 -0.52 0.04 -1 0.12 -1.48 c0.12 -0.44 0.24 -0.88 0.44 -1.24 c0.36 -0.76 1.12 -1.48 1.88 -1.8 c0.08 -0.08 0.2 -0.08 0.68 -0.16 l0.72 -0.12 c1.68 -0.28 1.92 -0.28 2.2 -0.28 c0.24 0 0.52 0 0.8 0.04 c0.76 0.04 0.92 0 1.08 0.04 c1.28 0.16 2.56 0.36 3.8 0.76 c1.28 0.4 2.48 1 3.64 1.72 c1.12 0.76 2.2 1.64 3.08 2.84 c1.08 1.48 1.84 3.04 1.72 4.92 c-0.04 0.44 -0.08 0.88 -0.12 1.28 c-0.08 0.92 -0.24 1.76 -0.4 2.8 c-1.12 3.36 -2.64 5.52 -6.08 7.24 c1.92 0.8 3.72 1.56 5.16 2.24 z M28.185 14.440000000000001 c-0.08 0.04 -0.16 0.12 -0.12 0.2 c0 0.08 0 0.16 0.04 0.24 l0 0.08 l0.04 0.68 l0.12 1.56 c0.08 1.04 0.12 2.08 0.2 3.08 c0.16 2.44 0.32 4.8 0.48 6.96 c0.04 0.04 0.12 0.08 0.2 0.08 c0.2 -0.12 0.4 -0.24 0.64 -0.36 c1.32 -0.72 2.64 -1.4 4.12 -2.56 c0.8 -0.68 1.4 -1.44 1.76 -2.4 c0.28 -0.88 0.28 -1.76 0.4 -2.68 c0 -0.4 0.16 -1.12 -0.12 -1.52 c0 -0.2 -0.32 -0.48 -0.44 -0.68 c-0.96 -1.08 -2.36 -1.92 -3.92 -2.28 c-0.92 -0.32 -1.96 -0.48 -3.04 -0.44 l-0.04 0 l0 0 l-0.12 0 c-0.08 0.04 -0.16 0.04 -0.2 0.04 z M52.089999999999996 30.6 c0.16 3.04 -1.04 4.68 -2.36 4.6 c-1.32 -0.12 -2.72 -1.68 -3.32 -4.96 c-0.32 -1.72 -0.64 -4.36 -1 -7.64 c-0.04 0.04 -0.88 -7.92 -0.72 -8.44 c0.04 -2.08 0.8 -3.76 2.44 -4.44 c3.52 -1.28 7.4 -1.16 11 -0.6 c5.8 0.92 8.2 7.24 4.92 11.32 c-0.16 0.2 -0.32 0.44 -0.48 0.64 l-0.12 0.12 l-0.04 0.04 l0 0 l0 0 l0 0.04 l0.04 0 l0 0 l0 0 l0 0 l0 0 l0 0 s-0.04 0 0 0 l0.04 0 l0.16 0.04 c8.64 3.28 8.4 13.4 1.48 17.72 c-1.92 1.2 -3.72 1.68 -5.2 1.88 c-0.4 0.08 -0.76 0.12 -1.08 0.12 c-0.36 0.04 -0.68 0.04 -1 0.04 c-0.64 0 -1.2 -0.04 -1.72 -0.12 c-2.04 -0.28 -3.16 -0.92 -3.56 -1.48 c-0.44 -0.56 -0.2 -1.12 0.52 -1.6 c0.68 -0.44 1.88 -0.76 3.36 -1.08 c1.12 -0.24 3 -0.64 4.92 -1.68 c0.96 -0.52 1.96 -1.24 2.56 -2.2 c3.2 -5.72 -3.68 -6.56 -7.56 -6.32 c-1.32 -0.32 -3.32 -0.92 -3.24 -2.6 c0.16 -4.08 4.68 -5.2 6.08 -7.8 c-0.36 -1.64 -5.56 -1 -6.88 -0.88 l-0.08 0 l-0.04 0 l0 0 l-0.12 0.04 c-0.04 0 -0.08 0 -0.08 0.04 c-0.04 0.04 0 0.08 0 0.08 l0 0.04 l0 0.04 l0 0 l0.04 0.08 c0.28 4.44 0.92 11.4 1.04 14.96 z M91.995 28.36 c1.08 4.68 0.68 7.16 -0.2 8.04 c-1.2 1.36 -2.8 -0.88 -3.28 -2 c-0.48 -1.08 -1.16 -3.08 -1.96 -5.68 c-2.44 1.44 -5.04 2.64 -7.68 3.92 c-0.76 2.92 -1.36 5.24 -1.68 6.56 c-1.04 4.36 -5.68 2.44 -5.4 -1.76 c0.52 -6.72 3.4 -16.52 6.08 -23.56 c0.84 -2.12 2.2 -5 4.84 -5.36 c3.56 0 4.92 3.88 5.84 6.8 c1.48 4.16 2.44 8.56 3.44 13.04 z M81.035 24.6 c1.28 -0.52 2.64 -1 3.8 -1.36 c0.08 -1.68 -1.68 -5.08 -2.16 -4.4 c-1.12 1.6 -0.84 3.84 -1.64 5.76 z M102.57999999999998 37.04 c0.04 3.2 -1.16 4.88 -2.44 4.8 c-1.32 -0.08 -2.76 -1.84 -3.24 -5.4 c-0.2 -1.28 -0.36 -3.08 -0.52 -5.24 c-0.08 -1.08 -0.16 -2.24 -0.2 -3.52 c-0.04 -0.48 -0.24 -4.68 -0.24 -5.32 c-0.04 -2.6 -0.08 -5.48 0 -8.16 c0.08 -1.52 0.2 -3.08 0.96 -4.24 c0.44 -0.6 0.88 -1.08 1.52 -1.4 c1.88 -0.76 3.8 0.92 4.4 2.36 l6.32 12.36 l0 0 l0.04 0 l0 0 l0 0 l0 0 c0.16 -2.88 0.24 -5.56 0.36 -7.6 c0.32 -7.2 1.36 -10.8 2.44 -11.76 s2.28 0.76 2.6 4.28 c0.36 2.76 0.44 12.8 0.16 18.16 c-0.04 1.32 -0.12 2.72 -0.24 4.08 c-0.08 1.36 -0.24 2.72 -0.52 3.68 c-0.24 0.8 -1.36 3.32 -2.36 3 c-2.52 -0.64 -3.72 -3.04 -4.84 -5.28 c-0.48 -0.84 -0.92 -1.64 -1.4 -2.48 c-0.76 -1.44 -2.4 -3.96 -3.2 -5.36 c0.16 2.68 0.2 5.72 0.28 7.84 c0.04 2.2 0.08 3.96 0.12 5.2 z M126.60499999999999 30.6 c0.16 3.04 -1.04 4.68 -2.36 4.6 c-1.32 -0.12 -2.72 -1.68 -3.32 -4.96 c-0.32 -1.72 -0.64 -4.36 -1 -7.64 c-0.04 0.04 -0.88 -7.92 -0.72 -8.44 c0.04 -2.08 0.8 -3.76 2.44 -4.44 c3.52 -1.28 7.4 -1.16 11 -0.6 c5.8 0.92 8.2 7.24 4.92 11.32 c-0.16 0.2 -0.32 0.44 -0.48 0.64 l-0.12 0.12 l-0.04 0.04 l0 0 l0 0 l0 0.04 l0.04 0 l0 0 l0 0 l0 0 l0 0 l0 0 s-0.04 0 0 0 l0.04 0 l0.16 0.04 c8.64 3.28 8.4 13.4 1.48 17.72 c-1.92 1.2 -3.72 1.68 -5.2 1.88 c-0.4 0.08 -0.76 0.12 -1.08 0.12 c-0.36 0.04 -0.68 0.04 -1 0.04 c-0.64 0 -1.2 -0.04 -1.72 -0.12 c-2.04 -0.28 -3.16 -0.92 -3.56 -1.48 c-0.44 -0.56 -0.2 -1.12 0.52 -1.6 c0.68 -0.44 1.88 -0.76 3.36 -1.08 c1.12 -0.24 3 -0.64 4.92 -1.68 c0.96 -0.52 1.96 -1.24 2.56 -2.2 c3.2 -5.72 -3.68 -6.56 -7.56 -6.32 c-1.32 -0.32 -3.32 -0.92 -3.24 -2.6 c0.16 -4.08 4.68 -5.2 6.08 -7.8 c-0.36 -1.64 -5.56 -1 -6.88 -0.88 l-0.08 0 l-0.04 0 l0 0 l-0.12 0.04 c-0.04 0 -0.08 0 -0.08 0.04 c-0.04 0.04 0 0.08 0 0.08 l0 0.04 l0 0.04 l0 0 l0.04 0.08 c0.28 4.44 0.92 11.4 1.04 14.96 z M166.50999999999996 28.36 c1.08 4.68 0.68 7.16 -0.2 8.04 c-1.2 1.36 -2.8 -0.88 -3.28 -2 c-0.48 -1.08 -1.16 -3.08 -1.96 -5.68 c-2.44 1.44 -5.04 2.64 -7.68 3.92 c-0.76 2.92 -1.36 5.24 -1.68 6.56 c-1.04 4.36 -5.68 2.44 -5.4 -1.76 c0.52 -6.72 3.4 -16.52 6.08 -23.56 c0.84 -2.12 2.2 -5 4.84 -5.36 c3.56 0 4.92 3.88 5.84 6.8 c1.48 4.16 2.44 8.56 3.44 13.04 z M155.54999999999998 24.6 c1.28 -0.52 2.64 -1 3.8 -1.36 c0.08 -1.68 -1.68 -5.08 -2.16 -4.4 c-1.12 1.6 -0.84 3.84 -1.64 5.76 z M177.095 37.04 c0.04 3.2 -1.16 4.88 -2.44 4.8 c-1.32 -0.08 -2.76 -1.84 -3.24 -5.4 c-0.2 -1.28 -0.36 -3.08 -0.52 -5.24 c-0.08 -1.08 -0.16 -2.24 -0.2 -3.52 c-0.04 -0.48 -0.24 -4.68 -0.24 -5.32 c-0.04 -2.6 -0.08 -5.48 0 -8.16 c0.08 -1.52 0.2 -3.08 0.96 -4.24 c0.44 -0.6 0.88 -1.08 1.52 -1.4 c1.88 -0.76 3.8 0.92 4.4 2.36 l6.32 12.36 l0 0 l0.04 0 l0 0 l0 0 l0 0 c0.16 -2.88 0.24 -5.56 0.36 -7.6 c0.32 -7.2 1.36 -10.8 2.44 -11.76 s2.28 0.76 2.6 4.28 c0.36 2.76 0.44 12.8 0.16 18.16 c-0.04 1.32 -0.12 2.72 -0.24 4.08 c-0.08 1.36 -0.24 2.72 -0.52 3.68 c-0.24 0.8 -1.36 3.32 -2.36 3 c-2.52 -0.64 -3.72 -3.04 -4.84 -5.28 c-0.48 -0.84 -0.92 -1.64 -1.4 -2.48 c-0.76 -1.44 -2.4 -3.96 -3.2 -5.36 c0.16 2.68 0.2 5.72 0.28 7.84 c0.04 2.2 0.08 3.96 0.12 5.2 z M200.64000000000001 31.08 c0.12 2.64 -1.08 4.08 -2.4 3.96 c-1.32 -0.08 -2.72 -1.44 -3.28 -4.24 c-0.88 -4.52 -1.24 -9.04 -1.68 -13.48 c-0.12 -1.56 -0.32 -3.12 -0.08 -4.6 c0.48 -2.28 1.6 -3.24 3.76 -3.64 c2.32 -0.44 4.56 -0.36 6.68 0.16 c5.96 1.48 10.32 5.92 12.6 11.36 c1.6 4.24 2.48 9.36 0.8 13.48 c-1.84 3.52 -4.96 5.68 -8.56 6.6 c-2.76 0.56 -7 0.8 -8.44 -1.36 c-1.04 -1.64 2.56 -2.48 3.4 -2.6 c4.88 -1.12 9.12 -2.84 8.56 -8.48 c-0.72 -6.72 -5.28 -12.92 -12.2 -13.04 c-0.12 0 -0.32 0.04 -0.32 0.12 c0.12 2.88 0.44 5.16 0.6 7.68 c0.28 3.56 0.48 6.4 0.56 8.08 z M241.185 28.36 c1.08 4.68 0.68 7.16 -0.2 8.04 c-1.2 1.36 -2.8 -0.88 -3.28 -2 c-0.48 -1.08 -1.16 -3.08 -1.96 -5.68 c-2.44 1.44 -5.04 2.64 -7.68 3.92 c-0.76 2.92 -1.36 5.24 -1.68 6.56 c-1.04 4.36 -5.68 2.44 -5.4 -1.76 c0.52 -6.72 3.4 -16.52 6.08 -23.56 c0.84 -2.12 2.2 -5 4.84 -5.36 c3.56 0 4.92 3.88 5.84 6.8 c1.48 4.16 2.44 8.56 3.44 13.04 z M230.22500000000002 24.6 c1.28 -0.52 2.64 -1 3.8 -1.36 c0.08 -1.68 -1.68 -5.08 -2.16 -4.4 c-1.12 1.6 -0.84 3.84 -1.64 5.76 z" fill="#111111"></path></g><g id="SvgjsG1051" featurekey="sloganFeature-0" transform="matrix(0.8480501355811354,0,0,0.8480501355811354,34.66078095166731,63.449427342777966)" fill="#111111"><path d="M13.4 6.960000000000001 c-0.04 -1.06 0.08 -1.9 0.3 -2.44 c0.22 -0.56 0.54 -0.84 0.86 -0.8 c0.64 0.06 1.4 1.2 1.68 3.62 c0.14 1.12 0.28 2.8 0.28 4.92 c0 1.04 -0.04 2.22 -0.18 3.5 c-0.18 1.34 -0.44 2.48 -1.02 3.54 c-0.28 0.44 -0.32 0.5 -0.52 0.72 c-0.36 0.38 -0.72 0.66 -1.1 0.78 c-0.16 0.06 -0.34 0.1 -0.52 0.12 c-0.34 0.06 -0.7 0.02 -1.04 -0.1 c-1.72 -0.62 -2.74 -2.86 -3.32 -4.32 c-0.38 -0.92 -0.7 -1.82 -1.1 -3.04 c-0.02 -0.02 -0.02 -0.04 -0.02 -0.04 c-0.88 2.04 -1.16 5.2 -2.6 6.78 c-0.3 0.3 -0.56 0.48 -0.84 0.58 c-0.24 0.1 -0.46 0.14 -0.68 0.14 c-0.2 0 -0.42 0 -0.56 -0.08 l-0.2 -0.1 c-0.16 -0.08 -0.36 -0.16 -0.48 -0.28 l-0.1 -0.12 c-0.7 -1.12 -0.84 -1.54 -1 -1.94 c-0.12 -0.44 -0.24 -0.92 -0.36 -1.36 c-0.18 -0.98 -0.22 -1.22 -0.26 -1.48 c-0.14 -0.5 -0.22 -2.72 -0.22 -2.94 c0 -0.5 0 -1 0.02 -1.48 c0.12 -2.56 0.54 -4.42 0.96 -5.7 c0.4 -1.3 0.84 -2.02 1.18 -2.28 c0.32 -0.26 0.58 -0.08 0.72 0.46 c0.12 0.54 0.16 1.42 0.06 2.58 c-0.06 0.9 -0.2 2.36 -0.24 4.22 c-0.02 0.94 0 1.98 0.08 3.08 c0.1 0.82 0.12 0.94 0.14 1.04 c0.04 0.2 0.1 0.4 0.16 0.58 c0.08 0.18 0.14 0.36 0.26 0.48 c0.02 0.04 0.1 0.02 0.12 -0.04 c0.04 -0.04 0.06 -0.1 0.08 -0.16 c0.06 -0.1 0.1 -0.22 0.12 -0.32 c0.74 -2.7 1.2 -4.92 2.14 -7.5 c0.22 -0.48 0.46 -0.78 0.68 -0.98 c0.28 -0.24 0.62 -0.5 0.98 -0.5 c0.04 0 0.06 0.02 0.3 0.12 c0.16 0.06 0.34 0.14 0.58 0.38 c0.3 0.4 0.6 0.7 0.7 1.2 c0.46 2.1 1.62 5.92 2.32 7.48 c0.16 0.4 0.34 0.78 0.52 1.14 c0.08 0.18 0.42 0.96 0.56 0.78 c0 -0.02 0.02 -0.04 0.02 -0.06 l0 -0.02 l0 0 l0 0 l0.04 -0.12 c0.2 -0.72 0.3 -1.3 0.36 -1.88 c0.14 -1.16 0.18 -2.3 0.2 -3.34 c0.04 -2.06 -0.02 -3.74 -0.06 -4.82 z M23.9 7.5 c-0.16 0.16 -0.36 2.04 -0.4 2.5 l0 0.04 l0.12 0 c1.38 -0.02 2.86 0.06 3.9 0.18 c1.2 0.12 1.54 2.02 0.6 2.46 c-0.52 0.24 -2.18 0.38 -3.84 0.48 c-0.26 0.02 -0.54 0.04 -0.8 0.04 c0.02 1.24 -0.04 3.16 0.24 4.42 l0 0.02 l0 0 c0.34 0.04 0.78 0 1.2 -0.02 c0.6 0 1.66 -0.02 2.1 0.56 c0.36 0.5 0.02 1.16 -0.88 1.56 c-0.7 0.3 -1.44 0.52 -2.24 0.58 c-0.6 0.04 -1.28 -0.04 -1.82 -0.4 c-0.9 -0.56 -1.24 -1.7 -1.38 -2.76 c-0.1 -1.24 -0.24 -2.46 -0.32 -3.82 c-0.22 -0.1 -0.36 -0.64 -0.4 -1.22 c-0.04 -0.56 0.08 -1.16 0.34 -1.46 c0.02 -0.76 0.06 -1.52 0.16 -2.28 c0.06 -1.04 0.42 -2.36 1.24 -3.16 c0.36 -0.34 0.78 -0.6 1.24 -0.74 c1.08 -0.4 2.24 -0.2 3.38 -0.02 c0.74 0.14 1.24 0.22 1.56 0.24 c0.94 0.12 1.38 1.52 0.76 2.24 s-1.76 0.6 -2.74 0.5 c-0.56 -0.04 -1.2 -0.1 -1.68 -0.06 c-0.1 0.02 -0.22 0.04 -0.28 0.08 c-0.04 0.02 -0.04 0.02 -0.06 0.04 z M41.62 14.18 c0.54 2.34 0.34 3.58 -0.1 4.02 c-0.6 0.68 -1.4 -0.44 -1.64 -1 c-0.24 -0.54 -0.58 -1.54 -0.98 -2.84 c-1.22 0.72 -2.52 1.32 -3.84 1.96 c-0.38 1.46 -0.68 2.62 -0.84 3.28 c-0.52 2.18 -2.84 1.22 -2.7 -0.88 c0.26 -3.36 1.7 -8.26 3.04 -11.78 c0.42 -1.06 1.1 -2.5 2.42 -2.68 c1.78 0 2.46 1.94 2.92 3.4 c0.74 2.08 1.22 4.28 1.72 6.52 z M36.14 12.3 c0.64 -0.26 1.32 -0.5 1.9 -0.68 c0.04 -0.84 -0.84 -2.54 -1.08 -2.2 c-0.56 0.8 -0.42 1.92 -0.82 2.88 z M54.8 16 c0.82 0.36 1.04 1 0.94 1.56 s-0.52 1.02 -1 1.04 c-0.68 0 -2.72 -0.58 -4.74 -1.26 c-0.26 -0.08 -0.52 -0.18 -0.76 -0.26 c0.04 0.84 0.08 1.54 0.08 2 c0.04 1.2 -0.56 1.84 -1.22 1.8 s-1.36 -0.66 -1.62 -1.94 c-0.14 -0.7 -0.26 -1.76 -0.4 -3.08 c-0.34 -0.16 -0.64 -0.3 -0.82 -0.4 c-0.2 -0.1 -0.3 -0.32 -0.28 -0.6 c0.02 -0.26 0.14 -0.54 0.32 -0.82 c0.16 -0.24 0.36 -0.48 0.56 -0.66 c-0.08 -1 -0.16 -2.1 -0.24 -3.24 c-0.06 -0.72 -0.1 -1.52 -0.18 -3.54 c0 -0.26 0.02 -0.5 0.06 -0.74 c0.06 -0.22 0.12 -0.44 0.22 -0.62 c0.18 -0.38 0.56 -0.74 0.94 -0.9 c0.04 -0.04 0.1 -0.04 0.34 -0.08 l0.36 -0.06 c0.84 -0.14 0.96 -0.14 1.1 -0.14 c0.12 0 0.26 0 0.4 0.02 c0.38 0.02 0.46 0 0.54 0.02 c0.64 0.08 1.28 0.18 1.9 0.38 c0.64 0.2 1.24 0.5 1.82 0.86 c0.56 0.38 1.1 0.82 1.54 1.42 c0.54 0.74 0.92 1.52 0.86 2.46 c-0.02 0.22 -0.04 0.44 -0.06 0.64 c-0.04 0.46 -0.12 0.88 -0.2 1.4 c-0.56 1.68 -1.32 2.76 -3.04 3.62 c0.96 0.4 1.86 0.78 2.58 1.12 z M48.66 7.220000000000001 c-0.04 0.02 -0.08 0.06 -0.06 0.1 c0 0.04 0 0.08 0.02 0.12 l0 0.04 l0.02 0.34 l0.06 0.78 c0.04 0.52 0.06 1.04 0.1 1.54 c0.08 1.22 0.16 2.4 0.24 3.48 c0.02 0.02 0.06 0.04 0.1 0.04 c0.1 -0.06 0.2 -0.12 0.32 -0.18 c0.66 -0.36 1.32 -0.7 2.06 -1.28 c0.4 -0.34 0.7 -0.72 0.88 -1.2 c0.14 -0.44 0.14 -0.88 0.2 -1.34 c0 -0.2 0.08 -0.56 -0.06 -0.76 c0 -0.1 -0.16 -0.24 -0.22 -0.34 c-0.48 -0.54 -1.18 -0.96 -1.96 -1.14 c-0.46 -0.16 -0.98 -0.24 -1.52 -0.22 l-0.02 0 l0 0 l-0.06 0 c-0.04 0.02 -0.08 0.02 -0.1 0.02 z M79.24 12.4 c0.28 3.16 0.48 6.36 0.5 7.44 c0 0.62 -0.6 0.94 -1.26 0.92 s-1.36 -0.34 -1.58 -1 c-0.04 -0.08 -0.06 -0.2 -0.1 -0.32 c-0.26 0.12 -0.66 0.26 -1.22 0.42 c-0.3 0.08 -0.66 0.18 -1.1 0.22 c-0.4 0.04 -1.1 0 -1.68 -0.3 c-0.58 -0.28 -1.06 -0.88 -1.3 -1.54 c-0.22 -0.6 -0.3 -1.16 -0.34 -1.68 c-0.1 -0.92 -0.18 -1.9 -0.24 -2.88 c-0.12 -1.98 -0.2 -3.96 -0.18 -5.64 s0.12 -3.08 0.26 -3.82 c0.04 -0.2 0.1 -0.38 0.2 -0.52 c0.1 -0.16 0.24 -0.28 0.38 -0.36 c0.28 -0.14 0.6 -0.14 0.92 -0.04 c0.3 0.1 0.6 0.32 0.82 0.58 c0.24 0.24 0.42 0.58 0.44 0.96 c0.08 0.56 0.08 1.5 0.12 2.72 s0.06 2.68 0.12 4.22 c0.04 1.56 0.1 3.2 0.16 4.74 c0 0.3 0.04 0.56 0.08 0.74 c0.04 0.1 0.02 0.06 0.02 0.06 l0 0 c0 0.02 0 0.02 0.02 0.02 c0.16 0.02 0.34 0 0.52 -0.02 c0.6 -0.06 1.2 -0.08 1.66 0 c-0.1 -0.98 -0.18 -2.12 -0.26 -3.32 c-0.18 -2.54 -0.28 -5.34 -0.32 -7.26 c-0.02 -1.36 0.46 -2.06 1 -2.28 c0.52 -0.2 1.14 0.1 1.36 0.74 c0.32 0.92 0.7 4.04 1 7.2 z M92.82 9.04 c0.02 0.06 0.02 0.12 0.02 0.18 c-0.02 0.42 -0.06 0.84 -0.14 1.32 c-0.04 0.36 -0.12 0.72 -0.24 1.1 c-0.04 0.12 -0.08 0.24 -0.14 0.38 c-0.8 1.58 -3.44 3.64 -5.12 3.5 c-0.28 0.02 -0.54 0 -0.74 -0.02 c0.1 1.58 0.16 2.84 0.18 3.58 c0.04 1.2 -0.56 1.84 -1.22 1.8 s-1.36 -0.66 -1.62 -1.94 c-0.3 -1.52 -0.6 -4.86 -0.88 -8.8 c-0.02 -0.48 -0.06 -0.98 -0.08 -1.5 c-0.02 -0.26 -0.04 -0.5 -0.06 -0.76 c-0.02 -0.78 -0.02 -1.02 -0.02 -1.28 s0.02 -0.5 0.06 -0.74 c0.04 -0.22 0.12 -0.44 0.22 -0.62 c0.18 -0.38 0.56 -0.74 0.94 -0.9 c0.04 -0.04 0.1 -0.04 0.34 -0.08 l0.36 -0.06 c0.82 -0.14 0.96 -0.14 1.08 -0.14 c0.3 0 0.66 -0.04 0.96 0.04 c0.62 0.08 1.26 0.18 1.9 0.38 c0.62 0.2 1.24 0.5 1.82 0.86 c0.56 0.38 1.1 0.82 1.54 1.42 c0.48 0.66 0.82 1.36 0.84 2.28 z M89.69999999999999 11 c0.52 -1.14 0.22 -2.34 -0.92 -3.12 c-0.68 -0.44 -1.5 -0.6 -2.36 -0.68 c-0.06 -0.02 -0.12 0 -0.18 0 l-0.08 0 l-0.02 0 l0 0 l-0.06 0 c-0.04 0.02 -0.08 0.02 -0.12 0.02 c-0.08 0.04 -0.04 0.12 -0.04 0.22 l0.02 0.04 c0.1 2.06 0.26 4.1 0.42 6.24 c0.12 -0.08 0.26 -0.16 0.42 -0.24 c1.1 -0.58 2.44 -1.2 2.92 -2.48 z M96.61999999999999 17.02 c0 -0.1 0.62 -0.2 1.26 -0.22 c0.66 -0.02 1.38 0.04 1.58 0.3 c0.14 0.16 0.24 0.46 0.28 0.84 s0 0.82 -0.1 1.3 c-0.12 0.46 -0.3 0.92 -0.52 1.34 c-0.24 0.42 -0.5 0.78 -0.74 1.06 c-0.36 0.38 -0.92 0.2 -1.32 -0.16 c-0.42 -0.36 -0.76 -0.86 -0.8 -1.1 c-0.02 -0.18 0.04 -0.46 0.12 -0.78 c0.08 -0.3 0.16 -0.66 0.2 -1.02 c0.06 -0.34 0.06 -0.7 0.06 -0.96 c0 -0.28 -0.02 -0.5 -0.02 -0.6 z M120.49999999999999 3.8599999999999994 c0.6 0.06 1 0.3 1.2 0.62 c0.2 0.28 0.2 0.62 0.08 0.92 c-0.12 0.32 -0.36 0.6 -0.64 0.82 c-0.34 0.18 -0.66 0.38 -1.02 0.46 c-0.34 0.06 -0.76 0.16 -1.04 0.34 c-0.14 0.06 -0.26 0.14 -0.4 0.22 c-0.38 0.28 -1.06 0.78 -1.06 1.28 c-0.06 0.28 0.1 0.62 0.22 0.88 c0.18 0.34 0.46 0.74 0.78 1.12 c0.66 0.8 1.62 1.64 2.5 2.78 c0.22 0.3 0.44 0.6 0.64 0.94 c0.22 0.4 0.42 0.8 0.52 1.2 c0.12 0.44 0.2 0.92 0.16 1.44 c-0.02 0.52 -0.16 1.08 -0.44 1.56 c-0.5 0.86 -1.26 1.42 -2.1 1.74 c-1.34 0.5 -2.8 0.82 -4.18 0.56 c-0.58 -0.16 -0.94 -0.4 -1.08 -0.66 c-0.3 -0.54 0.16 -1.14 1.06 -1.42 c0.44 -0.16 1.24 -0.36 2.24 -0.7 c0.52 -0.18 1.08 -0.4 1.32 -0.64 c0.4 -0.42 0.2 -1.02 -0.06 -1.44 c-0.14 -0.24 -0.34 -0.5 -0.56 -0.76 c-0.44 -0.54 -1 -1.06 -1.6 -1.66 c-0.58 -0.58 -1.22 -1.26 -1.74 -2.1 c-0.26 -0.4 -0.48 -0.86 -0.64 -1.4 c-0.18 -0.52 -0.26 -1.1 -0.2 -1.7 c0.04 -0.34 0.08 -0.6 0.2 -0.88 c0.18 -0.44 0.4 -0.84 0.66 -1.22 c0.12 -0.16 0.26 -0.32 0.4 -0.46 c0.54 -0.6 1.18 -1.02 1.78 -1.3 c0.54 -0.28 1.14 -0.42 1.72 -0.52 c0.46 -0.04 0.86 -0.02 1.28 -0.02 z M134.01999999999998 4.720000000000001 c0.04 0.56 -0.18 1.12 -0.54 1.3 c-0.42 0.2 -1.62 0.32 -2.96 0.4 c0.22 1.5 0.44 3.6 0.62 5.74 c0.3 3.3 0.5 6.62 0.5 7.76 c0.02 0.64 -0.6 0.98 -1.24 0.96 c-0.66 -0.02 -1.38 -0.36 -1.6 -1.04 c-0.3 -0.98 -0.52 -3.36 -0.7 -6.02 c-0.14 -2.5 -0.24 -5.24 -0.3 -7.24 c-0.16 0.02 -0.32 0.02 -0.48 0.02 c-0.68 0.04 -1.22 0.08 -1.46 0.08 c-0.28 0 -0.44 -0.58 -0.5 -1.24 c-0.04 -0.66 0.1 -1.38 0.48 -1.6 c0.54 -0.3 1.8 -0.46 3.16 -0.48 c1.38 -0.02 2.88 0.08 3.92 0.18 c0.72 0.08 1.06 0.62 1.1 1.18 z M146.42 14.18 c0.54 2.34 0.34 3.58 -0.1 4.02 c-0.6 0.68 -1.4 -0.44 -1.64 -1 c-0.24 -0.54 -0.58 -1.54 -0.98 -2.84 c-1.22 0.72 -2.52 1.32 -3.84 1.96 c-0.38 1.46 -0.68 2.62 -0.84 3.28 c-0.52 2.18 -2.84 1.22 -2.7 -0.88 c0.26 -3.36 1.7 -8.26 3.04 -11.78 c0.42 -1.06 1.1 -2.5 2.42 -2.68 c1.78 0 2.46 1.94 2.92 3.4 c0.74 2.08 1.22 4.28 1.72 6.52 z M140.94 12.3 c0.64 -0.26 1.32 -0.5 1.9 -0.68 c0.04 -0.84 -0.84 -2.54 -1.08 -2.2 c-0.56 0.8 -0.42 1.92 -0.82 2.88 z M153.6 18.52 c0.02 1.6 -0.58 2.44 -1.22 2.4 c-0.66 -0.04 -1.38 -0.92 -1.62 -2.7 c-0.1 -0.64 -0.18 -1.54 -0.26 -2.62 c-0.04 -0.54 -0.08 -1.12 -0.1 -1.76 c-0.02 -0.24 -0.12 -2.34 -0.12 -2.66 c-0.02 -1.3 -0.04 -2.74 0 -4.08 c0.04 -0.76 0.1 -1.54 0.48 -2.12 c0.22 -0.3 0.44 -0.54 0.76 -0.7 c0.94 -0.38 1.9 0.46 2.2 1.18 l3.16 6.18 l0 0 l0.02 0 l0 0 l0 0 l0 0 c0.08 -1.44 0.12 -2.78 0.18 -3.8 c0.16 -3.6 0.68 -5.4 1.22 -5.88 s1.14 0.38 1.3 2.14 c0.18 1.38 0.22 6.4 0.08 9.08 c-0.02 0.66 -0.06 1.36 -0.12 2.04 c-0.04 0.68 -0.12 1.36 -0.26 1.84 c-0.12 0.4 -0.68 1.66 -1.18 1.5 c-1.26 -0.32 -1.86 -1.52 -2.42 -2.64 c-0.24 -0.42 -0.46 -0.82 -0.7 -1.24 c-0.38 -0.72 -1.2 -1.98 -1.6 -2.68 c0.08 1.34 0.1 2.86 0.14 3.92 c0.02 1.1 0.04 1.98 0.06 2.6 z M167.26 15.54 c0.06 1.32 -0.54 2.04 -1.2 1.98 c-0.66 -0.04 -1.36 -0.72 -1.64 -2.12 c-0.44 -2.26 -0.62 -4.52 -0.84 -6.74 c-0.06 -0.78 -0.16 -1.56 -0.04 -2.3 c0.24 -1.14 0.8 -1.62 1.88 -1.82 c1.16 -0.22 2.28 -0.18 3.34 0.08 c2.98 0.74 5.16 2.96 6.3 5.68 c0.8 2.12 1.24 4.68 0.4 6.74 c-0.92 1.76 -2.48 2.84 -4.28 3.3 c-1.38 0.28 -3.5 0.4 -4.22 -0.68 c-0.52 -0.82 1.28 -1.24 1.7 -1.3 c2.44 -0.56 4.56 -1.42 4.28 -4.24 c-0.36 -3.36 -2.64 -6.46 -6.1 -6.52 c-0.06 0 -0.16 0.02 -0.16 0.06 c0.06 1.44 0.22 2.58 0.3 3.84 c0.14 1.78 0.24 3.2 0.28 4.04 z M195.04 7.24 c-0.3 -0.02 -0.64 -0.06 -0.9 -0.26 c-1.28 -1.36 0.9 -2.92 2.22 -2.8 c1.88 -0.22 3.58 0.98 4.52 2.44 c0.74 1.14 1.2 2.46 1.44 3.86 c0.24 1.42 0.26 2.92 -0.04 4.5 c-0.14 0.78 -0.38 1.58 -0.76 2.38 c-0.4 0.78 -0.96 1.6 -1.82 2.22 c-0.44 0.32 -0.94 0.56 -1.48 0.7 c-0.52 0.16 -1.06 0.2 -1.58 0.18 c-0.5 -0.04 -0.98 -0.14 -1.42 -0.28 c-0.22 -0.06 -0.42 -0.14 -0.62 -0.22 c-0.12 -0.06 -0.26 -0.12 -0.38 -0.18 s-0.24 -0.14 -0.34 -0.2 c-0.46 -0.3 -0.86 -0.68 -1.16 -1.08 c-1.48 -2.1 -1.74 -4.76 -1.74 -7.1 c0 -1.62 0.38 -2.88 0.84 -3.7 c0.48 -0.82 1.04 -1.18 1.36 -1.22 c0.36 -0.04 0.54 0.22 0.6 0.58 c0.06 0.38 0.04 0.88 -0.04 1.5 c-0.06 0.46 -0.14 1.18 -0.12 2.12 s0.14 2.12 0.42 3.38 c0.14 0.62 0.32 1.3 0.56 1.86 c0.74 1.5 2.52 2.02 3.7 0.72 c0.8 -1.08 1.02 -2.56 1.02 -3.84 c0.02 -1.4 -0.26 -2.78 -0.72 -3.82 c-0.22 -0.5 -0.5 -0.92 -0.78 -1.22 c-0.42 -0.44 -0.9 -0.66 -1.48 -0.66 c-0.5 0.1 -0.82 0.14 -1.3 0.14 z M214.78 12.4 c0.28 3.16 0.48 6.36 0.5 7.44 c0 0.62 -0.6 0.94 -1.26 0.92 s-1.36 -0.34 -1.58 -1 c-0.04 -0.08 -0.06 -0.2 -0.1 -0.32 c-0.26 0.12 -0.66 0.26 -1.22 0.42 c-0.3 0.08 -0.66 0.18 -1.1 0.22 c-0.4 0.04 -1.1 0 -1.68 -0.3 c-0.58 -0.28 -1.06 -0.88 -1.3 -1.54 c-0.22 -0.6 -0.3 -1.16 -0.34 -1.68 c-0.1 -0.92 -0.18 -1.9 -0.24 -2.88 c-0.12 -1.98 -0.2 -3.96 -0.18 -5.64 s0.12 -3.08 0.26 -3.82 c0.04 -0.2 0.1 -0.38 0.2 -0.52 c0.1 -0.16 0.24 -0.28 0.38 -0.36 c0.28 -0.14 0.6 -0.14 0.92 -0.04 c0.3 0.1 0.6 0.32 0.82 0.58 c0.24 0.24 0.42 0.58 0.44 0.96 c0.08 0.56 0.08 1.5 0.12 2.72 s0.06 2.68 0.12 4.22 c0.04 1.56 0.1 3.2 0.16 4.74 c0 0.3 0.04 0.56 0.08 0.74 c0.04 0.1 0.02 0.06 0.02 0.06 l0 0 c0 0.02 0 0.02 0.02 0.02 c0.16 0.02 0.34 0 0.52 -0.02 c0.6 -0.06 1.2 -0.08 1.66 0 c-0.1 -0.98 -0.18 -2.12 -0.26 -3.32 c-0.18 -2.54 -0.28 -5.34 -0.32 -7.26 c-0.02 -1.36 0.46 -2.06 1 -2.28 c0.52 -0.2 1.14 0.1 1.36 0.74 c0.32 0.92 0.7 4.04 1 7.2 z M226.68 4.720000000000001 c0.04 0.56 -0.18 1.12 -0.54 1.3 c-0.42 0.2 -1.62 0.32 -2.96 0.4 c0.22 1.5 0.44 3.6 0.62 5.74 c0.3 3.3 0.5 6.62 0.5 7.76 c0.02 0.64 -0.6 0.98 -1.24 0.96 c-0.66 -0.02 -1.38 -0.36 -1.6 -1.04 c-0.3 -0.98 -0.52 -3.36 -0.7 -6.02 c-0.14 -2.5 -0.24 -5.24 -0.3 -7.24 c-0.16 0.02 -0.32 0.02 -0.48 0.02 c-0.68 0.04 -1.22 0.08 -1.46 0.08 c-0.28 0 -0.44 -0.58 -0.5 -1.24 c-0.04 -0.66 0.1 -1.38 0.48 -1.6 c0.54 -0.3 1.8 -0.46 3.16 -0.48 c1.38 -0.02 2.88 0.08 3.92 0.18 c0.72 0.08 1.06 0.62 1.1 1.18 z M229.34000000000003 17.02 c0 -0.1 0.62 -0.2 1.26 -0.22 c0.66 -0.02 1.38 0.04 1.58 0.3 c0.14 0.16 0.24 0.46 0.28 0.84 s0 0.82 -0.1 1.3 c-0.12 0.46 -0.3 0.92 -0.52 1.34 c-0.24 0.42 -0.5 0.78 -0.74 1.06 c-0.36 0.38 -0.92 0.2 -1.32 -0.16 c-0.42 -0.36 -0.76 -0.86 -0.8 -1.1 c-0.02 -0.18 0.04 -0.46 0.12 -0.78 c0.08 -0.3 0.16 -0.66 0.2 -1.02 c0.06 -0.34 0.06 -0.7 0.06 -0.96 c0 -0.28 -0.02 -0.5 -0.02 -0.6 z M257.08000000000004 12.08 c0.84 0.6 1.16 1.6 0.92 2.66 c-0.3 1.68 -1.88 3.42 -2.84 4.84 c-0.94 1.4 -2.82 1.04 -2.66 -0.26 c0.08 -0.5 0.32 -1 0.56 -1.48 c-2.22 0.2 -4.68 -0.54 -5.58 -2.88 c-0.48 -1.34 -0.34 -2.7 -0.1 -3.82 c0.44 -2.2 1.38 -4.52 3.32 -6.06 c1.04 -0.84 3.94 -2.74 5.22 -1.76 c0.98 0.66 0.26 2.16 -0.58 2.62 c-1.96 0.98 -3.6 2.04 -4.44 4.26 c-0.34 0.94 -0.98 2.78 -0.56 3.84 c0.34 0.86 1.3 1.08 2.16 1.18 c0.72 0.08 1.32 0.16 1.78 0.3 l0 0.02 c0 -0.02 0 -0.02 0.02 -0.04 l0.4 -0.8 l0 0 l0 -0.04 c0.02 -0.06 0 -0.14 -0.02 -0.18 c-1.06 -0.08 -2.36 -0.14 -3.58 -0.56 c-0.3 -0.12 -0.52 -0.36 -0.62 -0.72 c-0.14 -1 1.3 -1.92 2.2 -1.98 c0.24 0 0.54 -0.02 0.9 -0.02 c1.2 0.06 2.3 0.26 3.5 0.88 z M265.02000000000004 7.5 c-0.16 0.16 -0.36 2.04 -0.4 2.5 l0 0.04 l0.12 0 c1.38 -0.02 2.86 0.06 3.9 0.18 c1.2 0.12 1.54 2.02 0.6 2.46 c-0.52 0.24 -2.18 0.38 -3.84 0.48 c-0.26 0.02 -0.54 0.04 -0.8 0.04 c0.02 1.24 -0.04 3.16 0.24 4.42 l0 0.02 l0 0 c0.34 0.04 0.78 0 1.2 -0.02 c0.6 0 1.66 -0.02 2.1 0.56 c0.36 0.5 0.02 1.16 -0.88 1.56 c-0.7 0.3 -1.44 0.52 -2.24 0.58 c-0.6 0.04 -1.28 -0.04 -1.82 -0.4 c-0.9 -0.56 -1.24 -1.7 -1.38 -2.76 c-0.1 -1.24 -0.24 -2.46 -0.32 -3.82 c-0.22 -0.1 -0.36 -0.64 -0.4 -1.22 c-0.04 -0.56 0.08 -1.16 0.34 -1.46 c0.02 -0.76 0.06 -1.52 0.16 -2.28 c0.06 -1.04 0.42 -2.36 1.24 -3.16 c0.36 -0.34 0.78 -0.6 1.24 -0.74 c1.08 -0.4 2.24 -0.2 3.38 -0.02 c0.74 0.14 1.24 0.22 1.56 0.24 c0.94 0.12 1.38 1.52 0.76 2.24 s-1.76 0.6 -2.74 0.5 c-0.56 -0.04 -1.2 -0.1 -1.68 -0.06 c-0.1 0.02 -0.22 0.04 -0.28 0.08 c-0.04 0.02 -0.04 0.02 -0.06 0.04 z M282.26000000000005 4.720000000000001 c0.04 0.56 -0.18 1.12 -0.54 1.3 c-0.42 0.2 -1.62 0.32 -2.96 0.4 c0.22 1.5 0.44 3.6 0.62 5.74 c0.3 3.3 0.5 6.62 0.5 7.76 c0.02 0.64 -0.6 0.98 -1.24 0.96 c-0.66 -0.02 -1.38 -0.36 -1.6 -1.04 c-0.3 -0.98 -0.52 -3.36 -0.7 -6.02 c-0.14 -2.5 -0.24 -5.24 -0.3 -7.24 c-0.16 0.02 -0.32 0.02 -0.48 0.02 c-0.68 0.04 -1.22 0.08 -1.46 0.08 c-0.28 0 -0.44 -0.58 -0.5 -1.24 c-0.04 -0.66 0.1 -1.38 0.48 -1.6 c0.54 -0.3 1.8 -0.46 3.16 -0.48 c1.38 -0.02 2.88 0.08 3.92 0.18 c0.72 0.08 1.06 0.62 1.1 1.18 z M300.18 7.52 c-0.08 0.8 -0.3 1.58 -0.38 2.52 l0.06 0 c1.38 -0.02 2.86 0.06 3.9 0.18 c1.2 0.12 1.54 2.02 0.6 2.46 c-0.52 0.24 -2.18 0.38 -3.84 0.48 c-0.28 0.02 -0.56 0.04 -0.86 0.06 l0 0.38 c-0.04 1.58 -0.04 3.08 -0.04 4.32 c0 1.72 -0.48 2.6 -1.02 2.86 c-0.54 0.24 -1.14 -0.14 -1.36 -0.98 c-0.52 -1.96 -0.52 -4.28 -0.58 -6.46 c-0.24 -0.08 -0.4 -0.62 -0.44 -1.22 c-0.04 -0.62 0.1 -1.28 0.42 -1.54 l0 -0.16 c0 -1.36 0.02 -2.98 0.68 -4.3 c0.4 -0.76 1.1 -1.4 1.98 -1.66 c0.8 -0.24 1.64 -0.24 2.56 -0.1 c0.78 0.12 1.56 0.3 2.4 0.36 c0.9 0.06 1.16 1.58 0.7 2.22 c-0.52 0.72 -1.6 0.64 -2.44 0.58 c-0.7 -0.06 -1.48 -0.22 -2.24 -0.06 c-0.04 0.02 -0.08 0.02 -0.08 0.04 c-0.02 0 -0.02 0.02 -0.02 0.02 z M313.34000000000003 19.24 c0.02 0.62 -0.6 0.94 -1.24 0.92 c-0.66 -0.02 -1.38 -0.34 -1.6 -1 c-0.3 -0.92 -0.52 -3.22 -0.7 -5.76 c-0.16 -2.54 -0.26 -5.34 -0.3 -7.26 c-0.02 -1.36 0.44 -2.06 0.98 -2.28 c0.54 -0.2 1.14 0.1 1.38 0.74 c0.32 0.92 0.7 4.04 0.98 7.2 c0.3 3.16 0.5 6.36 0.5 7.44 z M324.44000000000005 4.720000000000001 c0.04 0.56 -0.18 1.12 -0.54 1.3 c-0.42 0.2 -1.62 0.32 -2.96 0.4 c0.22 1.5 0.44 3.6 0.62 5.74 c0.3 3.3 0.5 6.62 0.5 7.76 c0.02 0.64 -0.6 0.98 -1.24 0.96 c-0.66 -0.02 -1.38 -0.36 -1.6 -1.04 c-0.3 -0.98 -0.52 -3.36 -0.7 -6.02 c-0.14 -2.5 -0.24 -5.24 -0.3 -7.24 c-0.16 0.02 -0.32 0.02 -0.48 0.02 c-0.68 0.04 -1.22 0.08 -1.46 0.08 c-0.28 0 -0.44 -0.58 -0.5 -1.24 c-0.04 -0.66 0.1 -1.38 0.48 -1.6 c0.54 -0.3 1.8 -0.46 3.16 -0.48 c1.38 -0.02 2.88 0.08 3.92 0.18 c0.72 0.08 1.06 0.62 1.1 1.18 z M329.98 19.02 c0.08 0.26 0.14 0.54 0.18 0.78 c0.02 0.24 0 0.44 -0.06 0.56 c-0.1 0.14 -0.32 0.3 -0.68 0.36 c-0.34 0.06 -0.8 0.02 -1.22 -0.18 c-0.44 -0.18 -0.82 -0.52 -1.06 -0.88 c-0.14 -0.18 -0.22 -0.36 -0.28 -0.5 c-0.06 -0.16 -0.1 -0.28 -0.12 -0.38 c-0.02 -0.22 0.56 -0.42 1.22 -0.52 c0.16 -0.02 0.34 -0.06 0.48 -0.08 c0.12 -0.02 0.26 -0.02 0.38 -0.04 c0.22 -0.04 0.4 -0.06 0.48 -0.06 c0.14 -0.02 0.22 -0.02 0.3 -0.04 s0.12 -0.04 0.16 -0.06 c0.06 -0.06 0.02 -0.06 0.04 -0.02 l0 0.1 s0.02 0.06 0.02 0.1 l0 0.14 c0.02 0.2 0.1 0.46 0.16 0.72 z M330.42 6.16 c-0.1 1.02 -0.22 2.24 -0.26 3.46 c-0.06 1.22 -0.06 2.44 -0.02 3.46 c0.02 1 0.08 1.82 0.1 2.22 c0.02 0.46 -0.56 0.74 -1.22 0.78 s-1.38 -0.18 -1.62 -0.74 c-0.16 -0.38 -0.3 -1.06 -0.38 -1.9 c-0.1 -0.84 -0.1 -1.86 -0.06 -2.94 c0.04 -1.06 0.18 -2.18 0.34 -3.22 c0.18 -1.06 0.4 -2.02 0.62 -2.82 c0.32 -1.1 0.98 -1.5 1.54 -1.48 s1.06 0.44 1.1 0.98 c0.04 0.4 -0.06 1.2 -0.14 2.2 z" fill="#111111"></path></g></svg>